<!-- Generated by IcoMoon.io -->
<svg version="1.1" xmlns="http://www.w3.org/2000/svg" width="32" height="32" viewBox="0 0 32 32">
<title>alert_bell</title>
<path fill="none" stroke-linejoin="round" stroke-linecap="round" stroke-miterlimit="4" stroke-width="2" stroke="#000" d="M4.668 18.383v-0.292c0.043-0.864 0.32-1.701 0.802-2.425 0.803-0.869 1.352-1.935 1.591-3.085 0-0.889 0-1.79 0.078-2.679 0.401-4.278 4.631-7.236 8.81-7.236h0.103c4.178 0 8.408 2.958 8.822 7.236 0.078 0.889 0 1.79 0.065 2.679 0.242 1.152 0.791 2.221 1.591 3.098 0.486 0.717 0.763 1.551 0.802 2.412v0.279c0.029 1.161-0.371 2.292-1.125 3.186-0.997 1.045-2.35 1.696-3.803 1.828-4.261 0.457-8.559 0.457-12.82 0-1.451-0.138-2.802-0.787-3.803-1.828-0.743-0.895-1.137-2.020-1.112-3.174z"></path>
<path fill="none" stroke-linejoin="round" stroke-linecap="round" stroke-miterlimit="4" stroke-width="2" stroke="#000" d="M12.74 27.802c0.666 0.836 1.643 1.376 2.716 1.503s2.153-0.172 3.001-0.83c0.261-0.194 0.495-0.421 0.699-0.673"></path>
</svg>
