<!-- Generated by IcoMoon.io -->
<svg version="1.1" xmlns="http://www.w3.org/2000/svg" width="32" height="32" viewBox="0 0 32 32">
<title>book</title>
<path fill="#2bb9f4" opacity="0.965" d="M31.906 23.156c-0.354-0.333-0.708-0.667-1.063-1 0-3.583 0-7.167 0-10.75-0.333 0-0.667 0-1 0 0 3.146 0 6.292 0 9.438-0.048 0.048-0.079 0.11-0.094 0.188-0.315-0.325-0.638-0.638-0.969-0.938 0-3.729 0-7.458 0-11.188-0.292-0.042-0.583-0.083-0.875-0.125 0 3.458 0 6.917 0 10.375-0.427-0.343-0.782-0.739-1.063-1.188 0-4.083 0-8.167 0-12.25-0.565 0.014-1.127 0.056-1.688 0.125 0 3.583 0 7.167 0 10.75-0.257-0.415-0.58-0.79-0.969-1.125-0.024 0.035-0.055 0.056-0.094 0.063 0.010-4.354 0-8.708-0.031-13.063-1.787 1.015-3.328 2.328-4.625 3.938-0.631 0.826-1.246 1.66-1.844 2.5-0.254-0.254-0.483-0.525-0.688-0.813 1.364-2.146 3.051-4.010 5.063-5.594 0.804-0.605 1.689-1.053 2.656-1.344 0.238-0.006 0.404 0.098 0.5 0.313 0.031 1.104 0.042 2.208 0.031 3.313 0.809-0.109 1.622-0.141 2.438-0.094 0.112 0.049 0.205 0.122 0.281 0.219 0.091 0.933 0.122 1.87 0.094 2.813 0.488 0.044 0.967 0.138 1.438 0.281 0.147 0.022 0.261 0.095 0.344 0.219 0.091 0.702 0.122 1.41 0.094 2.125 0.459-0.010 0.917 0 1.375 0.031 0.319 0.090 0.537 0.287 0.656 0.594 0.031 4.062 0.042 8.125 0.031 12.188z"></path>
<path fill="#4698f4" opacity="0.957" d="M5.281 4.656c0.354 0.375 0.708 0.75 1.063 1.125-0.395-0.038-0.791-0.059-1.188-0.063 0 0.313 0 0.625 0 0.938-0.039 0.007-0.070 0.028-0.094 0.063-0.315-0.325-0.638-0.638-0.969-0.938-0.177-0.969 0.219-1.344 1.188-1.125z"></path>
<path fill="#409ff4" opacity="0.969" d="M5.281 4.656c0.806 0.013 1.598 0.117 2.375 0.313-0.007 0.039-0.028 0.070-0.063 0.094 0.452 0.462 0.91 0.91 1.375 1.344-0.861-0.267-1.736-0.476-2.625-0.625-0.354-0.375-0.708-0.75-1.063-1.125z"></path>
<path fill="#3ba5f4" opacity="0.971" d="M7.656 4.969c1.011 0.198 1.97 0.532 2.875 1 0.917 0.938 1.833 1.875 2.75 2.813-0.653-0.441-1.319-0.868-2-1.281-0.761-0.402-1.532-0.766-2.313-1.094-0.465-0.434-0.923-0.881-1.375-1.344 0.035-0.024 0.056-0.055 0.063-0.094z"></path>
<path fill="#36acf4" opacity="0.981" d="M10.531 5.969c1.996 0.889 3.778 2.097 5.344 3.625 0.33-0.515 0.674-1.015 1.031-1.5 0.204 0.288 0.433 0.559 0.688 0.813-0.343 0.561-0.687 1.123-1.031 1.688-0.031 0.458-0.042 0.916-0.031 1.375-0.354-0.333-0.708-0.667-1.063-1 0.010-0.106-0-0.21-0.031-0.313-0.712-0.64-1.431-1.265-2.156-1.875-0.917-0.938-1.833-1.875-2.75-2.813z"></path>
<path fill="#4b92f3" opacity="0.968" d="M4.094 5.781c0.331 0.3 0.654 0.612 0.969 0.938 0.024-0.035 0.055-0.056 0.094-0.063 0 0.833 0 1.667 0 2.5-0.051-0.154-0.082-0.321-0.094-0.5-0.336-0.325-0.659-0.658-0.969-1 0-0.625 0-1.25 0-1.875z"></path>
<path fill="#508df4" opacity="0.989" d="M4.094 7.656c0.31 0.342 0.633 0.675 0.969 1 0.011 0.179 0.043 0.346 0.094 0.5 0 0.729 0 1.458 0 2.188-0.051-0.217-0.083-0.447-0.094-0.688-0.383-0.351-0.727-0.726-1.031-1.125-0.007-0.253 0.014-0.503 0.063-0.75-0.293 0.034-0.585 0.075-0.875 0.125-0.191-0.286-0.421-0.546-0.688-0.781-0.059-0.030-0.122-0.041-0.188-0.031 0.565-0.192 1.148-0.338 1.75-0.438z"></path>
<path fill="#5586f4" opacity="0.991" d="M2.344 8.094c0.066-0.009 0.128 0.001 0.188 0.031 0.267 0.235 0.496 0.495 0.688 0.781 0 0.5 0 1 0 1.5-0.050 0.091-0.081 0.195-0.094 0.313-0.315-0.325-0.638-0.638-0.969-0.938-0.010-0.5 0-1 0.031-1.5 0.024-0.090 0.076-0.153 0.156-0.188z"></path>
<path fill="#4797f4" opacity="0.971" d="M10.406 10.344c0.769 0.8 1.55 1.592 2.344 2.375 0.043 0.059 0.033 0.1-0.031 0.125-1.876-1.289-3.928-2.185-6.156-2.688-0.125-0.25-0.125-0.5 0-0.75 0.14-0.092 0.297-0.134 0.469-0.125 1.186 0.18 2.311 0.534 3.375 1.063z"></path>
<path fill="#5586f4" d="M4.031 9.531c0.304 0.399 0.648 0.774 1.031 1.125 0.011 0.241 0.042 0.47 0.094 0.688 0 0.563 0 1.125 0 1.688-0.051-0.133-0.082-0.279-0.094-0.438-0.318-0.35-0.662-0.662-1.031-0.938 0-0.708 0-1.417 0-2.125z"></path>
<path fill="#5a7ff4" opacity="0.948" d="M2.156 9.781c0.331 0.3 0.654 0.612 0.969 0.938 0.012-0.118 0.044-0.222 0.094-0.313 0 1.083 0 2.167 0 3.25-0.021 0-0.042 0-0.063 0 0.010-0.251-0-0.501-0.031-0.75-0.315-0.325-0.638-0.638-0.969-0.938 0-0.188 0-0.375 0-0.563-0.188 0-0.375 0-0.563 0-0.313-0.333-0.625-0.667-0.938-1 0.495-0.060 0.995-0.081 1.5-0.063 0-0.188 0-0.375 0-0.563z"></path>
<path fill="#3ba5f3" opacity="0.984" d="M15.469 10.969c0.354 0.333 0.708 0.667 1.063 1 0 0.667 0 1.333 0 2-0.331-0.3-0.654-0.612-0.969-0.938-0.012-0.159-0.043-0.304-0.094-0.438 0-0.542 0-1.083 0-1.625z"></path>
<path fill="#429df4" opacity="0.965" d="M10.406 10.344c1.52 0.64 2.906 1.494 4.156 2.563 0.188 0.458 0.042 0.75-0.438 0.875-0.511-0.251-0.98-0.564-1.406-0.938 0.064-0.025 0.075-0.066 0.031-0.125-0.794-0.783-1.575-1.575-2.344-2.375z"></path>
<path fill="#5a80f4" d="M4.031 11.656c0.369 0.275 0.713 0.588 1.031 0.938 0.012 0.159 0.043 0.304 0.094 0.438 0 0.646 0 1.292 0 1.938-0.335-0.398-0.71-0.752-1.125-1.063 0-0.75 0-1.5 0-2.25z"></path>
<path fill="#5f79f4" opacity="0.993" d="M2.156 11.969c0.331 0.3 0.654 0.612 0.969 0.938 0.031 0.249 0.042 0.499 0.031 0.75 0.010 0.417-0 0.834-0.031 1.25-0.315-0.325-0.638-0.638-0.969-0.938 0-0.667 0-1.333 0-2z"></path>
<path fill="#6375f4" d="M0.656 10.406c0.313 0.333 0.625 0.667 0.938 1-0.167 0-0.333 0-0.5 0 0 1.125 0 2.25 0 3.375-0.354-0.333-0.708-0.667-1.063-1-0.010-0.938 0-1.875 0.031-2.813 0.109-0.286 0.307-0.474 0.594-0.563z"></path>
<path fill="#409ff3" opacity="0.971" d="M15.469 12.594c0.051 0.133 0.082 0.279 0.094 0.438 0.315 0.325 0.638 0.638 0.969 0.938 0 0.646 0 1.292 0 1.938-0.377-0.335-0.731-0.689-1.063-1.063 0-0.75 0-1.5 0-2.25z"></path>
<path fill="#5487f4" opacity="0.973" d="M8.156 13.719c0.487 0.519 0.987 1.029 1.5 1.531-0.037 0.029-0.079 0.039-0.125 0.031-0.893-0.338-1.81-0.598-2.75-0.781-0.295-0.152-0.389-0.392-0.281-0.719 0.159-0.286 0.398-0.379 0.719-0.281 0.316 0.063 0.628 0.136 0.938 0.219z"></path>
<path fill="#6a6bf5" d="M0.031 13.781c0.354 0.333 0.708 0.667 1.063 1 0 1.083 0 2.167 0 3.25-0.051 0.154-0.082 0.321-0.094 0.5-0.315-0.325-0.638-0.638-0.969-0.938 0-1.271 0-2.542 0-3.813z"></path>
<path fill="#4f8ef4" opacity="0.974" d="M8.156 13.719c2.383 0.676 4.519 1.801 6.406 3.375 0.222 0.63 0.003 0.911-0.656 0.844-1.339-1.077-2.797-1.963-4.375-2.656 0.046 0.008 0.088-0.002 0.125-0.031-0.513-0.502-1.013-1.013-1.5-1.531z"></path>
<path fill="#5f79f5" d="M4.031 13.906c0.415 0.311 0.79 0.665 1.125 1.063 0 0.563 0 1.125 0 1.688-0.048 0.048-0.079 0.11-0.094 0.188-0.313-0.313-0.625-0.625-0.938-0.938-0.013 0.097-0.044 0.181-0.094 0.25 0-0.75 0-1.5 0-2.25z"></path>
<path fill="#6473f5" opacity="0.995" d="M3.156 13.656c0.021 0 0.042 0 0.063 0 0 1.083 0 2.167 0 3.25-0.331-0.3-0.654-0.612-0.969-0.938-0.012-0.138-0.043-0.263-0.094-0.375 0-0.542 0-1.083 0-1.625 0.331 0.3 0.654 0.612 0.969 0.938 0.031-0.416 0.042-0.833 0.031-1.25z"></path>
<path fill="#4698f3" opacity="0.977" d="M15.469 14.844c0.332 0.373 0.686 0.727 1.063 1.063 0 0.646 0 1.292 0 1.938-0.049 0.069-0.081 0.153-0.094 0.25-0.292-0.292-0.583-0.583-0.875-0.875-0.012-0.138-0.043-0.263-0.094-0.375 0-0.667 0-1.333 0-2z"></path>
<path fill="#6a6bf5" opacity="0.992" d="M2.156 15.594c0.051 0.112 0.082 0.237 0.094 0.375 0.315 0.325 0.638 0.638 0.969 0.938 0 1.083 0 2.167 0 3.25-0.051 0.154-0.082 0.321-0.094 0.5-0.292-0.292-0.583-0.583-0.875-0.875-0.012 0.138-0.043 0.263-0.094 0.375 0-1.521 0-3.042 0-4.563z"></path>
<path fill="#6473f5" d="M5.156 16.656c0 0.896 0 1.792 0 2.688-0.051-0.175-0.082-0.363-0.094-0.563-0.313-0.313-0.625-0.625-0.938-0.938-0.017 0.057-0.049 0.099-0.094 0.125 0-0.604 0-1.208 0-1.813 0.049-0.069 0.081-0.153 0.094-0.25 0.313 0.313 0.625 0.625 0.938 0.938 0.014-0.077 0.046-0.14 0.094-0.188z"></path>
<path fill="#32b1f3" opacity="0.974" d="M25.156 16.594c0 0.708 0 1.417 0 2.125-0.308-0.34-0.631-0.673-0.969-1-0.013 0.097-0.044 0.181-0.094 0.25 0-0.813 0-1.625 0-2.438 0.039-0.007 0.070-0.028 0.094-0.063 0.389 0.335 0.711 0.71 0.969 1.125z"></path>
<path fill="#4b92f3" opacity="0.954" d="M15.469 16.844c0.051 0.112 0.082 0.237 0.094 0.375 0.292 0.292 0.583 0.583 0.875 0.875 0.013-0.097 0.044-0.181 0.094-0.25 0 0.646 0 1.292 0 1.938-0.049 0.069-0.081 0.153-0.094 0.25-0.315-0.325-0.638-0.638-0.969-0.938 0-0.75 0-1.5 0-2.25z"></path>
<path fill="#38a9f4" opacity="0.977" d="M25.156 18.719c0.028 0.549-0.004 1.090-0.094 1.625-0.486 0.259-0.976 0.509-1.469 0.75-0.25-0.271-0.5-0.542-0.75-0.813 0.364-0.255 0.76-0.464 1.188-0.625 0.062-0.561 0.083-1.123 0.063-1.688 0.049-0.069 0.081-0.153 0.094-0.25 0.337 0.327 0.66 0.66 0.969 1z"></path>
<path fill="#696df5" d="M5.156 19.344c0 0.438 0 0.875 0 1.313-0.039 0.007-0.070 0.028-0.094 0.063-0.313-0.313-0.625-0.625-0.938-0.938-0.024 0.035-0.055 0.056-0.094 0.063 0-0.625 0-1.25 0-1.875 0.045-0.026 0.076-0.068 0.094-0.125 0.313 0.313 0.625 0.625 0.938 0.938 0.011 0.2 0.043 0.387 0.094 0.563z"></path>
<path fill="#7361f5" opacity="0.936" d="M0.031 17.594c0.331 0.3 0.654 0.612 0.969 0.938 0.011-0.179 0.043-0.346 0.094-0.5 0 0.979 0 1.958 0 2.938-0.354-0.333-0.708-0.667-1.063-1 0-0.792 0-1.583 0-2.375z"></path>
<path fill="#6078f5" opacity="0.965" d="M8.656 18.594c0.508 0.54 1.029 1.071 1.563 1.594-0.035 0.024-0.056 0.055-0.063 0.094-1.159-0.515-2.357-0.911-3.594-1.188-0.146-0.304-0.114-0.585 0.094-0.844 0.102-0.038 0.206-0.069 0.313-0.094 0.583 0.099 1.145 0.245 1.688 0.438z"></path>
<path fill="#5a7ff4" opacity="0.974" d="M8.656 18.594c2.236 0.675 4.226 1.779 5.969 3.313 0.080 0.608-0.181 0.847-0.781 0.719-1.138-0.919-2.367-1.7-3.688-2.344 0.007-0.039 0.028-0.070 0.063-0.094-0.534-0.523-1.054-1.054-1.563-1.594z"></path>
<path fill="#508cf3" opacity="0.973" d="M15.469 19.094c0.331 0.3 0.654 0.612 0.969 0.938 0.013-0.097 0.044-0.181 0.094-0.25 0 0.646 0 1.292 0 1.938-0.050 0.091-0.081 0.195-0.094 0.313-0.292-0.292-0.583-0.583-0.875-0.875-0.011 0.22-0.042 0.429-0.094 0.625 0-0.896 0-1.792 0-2.688z"></path>
<path fill="#32b1f4" opacity="0.978" d="M26.844 17.969c0.281 0.448 0.635 0.844 1.063 1.188 0 0.75 0 1.5 0 2.25-0.354-0.333-0.708-0.667-1.063-1 0-0.813 0-1.625 0-2.438z"></path>
<path fill="#6e67f5" opacity="0.98" d="M5.156 20.656c0 0.458 0 0.917 0 1.375-0.051 0.175-0.082 0.363-0.094 0.563-0.313-0.313-0.625-0.625-0.938-0.938-0.012 0.159-0.043 0.304-0.094 0.438 0-0.75 0-1.5 0-2.25 0.039-0.007 0.070-0.028 0.094-0.063 0.313 0.313 0.625 0.625 0.938 0.938 0.024-0.035 0.055-0.056 0.094-0.063z"></path>
<path fill="#785af5" d="M0.031 19.969c0.354 0.333 0.708 0.667 1.063 1 0 0.542 0 1.083 0 1.625-0.049 0.069-0.081 0.153-0.094 0.25-0.315-0.325-0.638-0.638-0.969-0.938 0-0.646 0-1.292 0-1.938z"></path>
<path fill="#7361f5" opacity="0.93" d="M3.219 20.156c0 0.979 0 1.958 0 2.938-0.311-0.29-0.624-0.582-0.938-0.875-0.042 0.069-0.084 0.131-0.125 0.188 0-0.75 0-1.5 0-2.25 0.051-0.112 0.082-0.237 0.094-0.375 0.292 0.292 0.583 0.583 0.875 0.875 0.011-0.179 0.043-0.346 0.094-0.5z"></path>
<path fill="#36abf4" opacity="0.971" d="M26.844 20.406c0.354 0.333 0.708 0.667 1.063 1 0 0.646 0 1.292 0 1.938-0.331-0.3-0.654-0.612-0.969-0.938-0.012 0.159-0.043 0.304-0.094 0.438 0-0.813 0-1.625 0-2.438z"></path>
<path fill="#5586f3" opacity="0.981" d="M16.531 21.719c0 0.667 0 1.333 0 2-0.049 0.069-0.081 0.153-0.094 0.25-0.315-0.325-0.638-0.638-0.969-0.938 0-0.417 0-0.833 0-1.25 0.051-0.196 0.083-0.405 0.094-0.625 0.292 0.292 0.583 0.583 0.875 0.875 0.012-0.118 0.044-0.222 0.094-0.313z"></path>
<path fill="#32b1f4" opacity="0.952" d="M28.781 20.094c0.331 0.3 0.654 0.612 0.969 0.938 0.015-0.077 0.046-0.14 0.094-0.188 0 0.792 0 1.583 0 2.375-0.039 0.007-0.070 0.028-0.094 0.063-0.315-0.325-0.638-0.638-0.969-0.938 0-0.75 0-1.5 0-2.25z"></path>
<path fill="#449bf4" opacity="0.977" d="M22.844 20.281c0.25 0.271 0.5 0.542 0.75 0.813-0.868 0.528-1.681 1.132-2.438 1.813-0.183-0.288-0.413-0.538-0.688-0.75 0.7-0.742 1.492-1.367 2.375-1.875z"></path>
<path fill="#7261f5" opacity="0.96" d="M5.156 22.031c-0 0.314-0.021 0.627-0.063 0.938 0.146 0 0.292 0 0.438 0 0.33 0.413 0.684 0.809 1.063 1.188-0.797-0.046-1.589-0.119-2.375-0.219-0.094-0.093-0.146-0.208-0.156-0.344-0.031-0.5-0.042-1-0.031-1.5 0.051-0.133 0.082-0.279 0.094-0.438 0.313 0.313 0.625 0.625 0.938 0.938 0.011-0.2 0.043-0.387 0.094-0.563z"></path>
<path fill="#36abf3" opacity="0.964" d="M28.781 22.344c0.331 0.3 0.654 0.612 0.969 0.938 0.024-0.035 0.055-0.056 0.094-0.063 0 0.667 0 1.333 0 2-0.372-0.288-0.726-0.6-1.063-0.938 0-0.646 0-1.292 0-1.938z"></path>
<path fill="#7d54f5" d="M0.031 21.906c0.331 0.3 0.654 0.612 0.969 0.938 0.013-0.097 0.044-0.181 0.094-0.25 0 0.542 0 1.083 0 1.625-0.051 0.175-0.082 0.363-0.094 0.563-0.315-0.325-0.638-0.638-0.969-0.938 0-0.646 0-1.292 0-1.938z"></path>
<path fill="#3ba5f3" opacity="0.981" d="M27.906 23.344c0.086 0.495-0.123 0.745-0.625 0.75-0.25-0.075-0.5-0.075-0.75 0-0.267-0.351-0.559-0.684-0.875-1 0.307-0.049 0.62-0.080 0.938-0.094 0.121-0.008 0.204-0.060 0.25-0.156 0.051-0.133 0.082-0.279 0.094-0.438 0.315 0.325 0.638 0.638 0.969 0.938z"></path>
<path fill="#6e67f5" opacity="0.965" d="M5.531 22.969c0.697 0.052 1.384 0.156 2.063 0.313 0.541 0.478 1.020 0.978 1.438 1.5-0.801-0.258-1.614-0.466-2.438-0.625-0.379-0.378-0.733-0.774-1.063-1.188z"></path>
<path fill="#419ff4" opacity="0.973" d="M25.656 23.094c0.316 0.316 0.608 0.649 0.875 1-0.783 0.017-1.554 0.121-2.313 0.313 0.026-0.045 0.068-0.076 0.125-0.094-0.263-0.273-0.534-0.534-0.813-0.781 0.681-0.241 1.39-0.386 2.125-0.438z"></path>
<path fill="#5a80f3" opacity="0.987" d="M15.469 23.031c0.331 0.3 0.654 0.612 0.969 0.938 0.013-0.097 0.044-0.181 0.094-0.25 0 0.792 0 1.583 0 2.375-0.045 0.026-0.076 0.068-0.094 0.125-0.292-0.292-0.583-0.583-0.875-0.875-0.012-0.138-0.043-0.263-0.094-0.375 0-0.646 0-1.292 0-1.938z"></path>
<path fill="#4e8ef4" opacity="0.982" d="M20.469 22.156c0.275 0.212 0.504 0.462 0.688 0.75-0.587 0.587-1.15 1.191-1.688 1.813-0.16-0.254-0.358-0.483-0.594-0.688-0.030-0.059-0.041-0.122-0.031-0.188 0.498-0.602 1.040-1.165 1.625-1.688z"></path>
<path fill="#33aff4" d="M30.844 22.156c0.354 0.333 0.708 0.667 1.063 1 0 1.396 0 2.792 0 4.188-0.331-0.3-0.654-0.612-0.969-0.938-0.011-0.345-0.042-0.678-0.094-1 0-1.083 0-2.167 0-3.25z"></path>
<path fill="#686df5" opacity="0.974" d="M7.594 23.281c1.097 0.24 2.138 0.615 3.125 1.125 1.731 1.773 3.481 3.523 5.25 5.25-0.335 0.146-0.669 0.292-1 0.438-0.292-0.25-0.563-0.521-0.813-0.813 0.29-0.128 0.582-0.264 0.875-0.406-0.282-0.172-0.573-0.328-0.875-0.469-0.322 0.13-0.634 0.275-0.938 0.438-0.332-0.29-0.644-0.602-0.938-0.938 0.181 0.023 0.348-0.008 0.5-0.094-0.363-0.131-0.717-0.266-1.063-0.406-0.462-0.462-0.899-0.941-1.313-1.438 0.581 0.156 1.165 0.291 1.75 0.406-1.003-0.616-2.044-1.147-3.125-1.594-0.417-0.522-0.897-1.022-1.438-1.5z"></path>
<path fill="#4a94f4" opacity="0.968" d="M23.531 23.531c0.279 0.248 0.55 0.508 0.813 0.781-0.057 0.017-0.099 0.049-0.125 0.094-0.877 0.251-1.731 0.563-2.563 0.938-0.204-0.288-0.433-0.559-0.688-0.813 0.802-0.453 1.657-0.786 2.563-1z"></path>
<path fill="#3ba5f4" opacity="0.957" d="M28.781 24.281c0.337 0.337 0.691 0.65 1.063 0.938 0 0.583 0 1.167 0 1.75-0.049 0.069-0.081 0.153-0.094 0.25-0.385-0.385-0.771-0.771-1.156-1.156 0.035-0.024 0.056-0.055 0.063-0.094 0.123-0.538 0.165-1.1 0.125-1.688z"></path>
<path fill="#6473f5" opacity="0.983" d="M10.719 24.406c1.744 0.784 3.317 1.825 4.719 3.125 0.031-0.081 0.041-0.164 0.031-0.25 0.521 0.5 1.042 1 1.563 1.5-0.026 0.045-0.068 0.076-0.125 0.094 0.209 0.063 0.396 0.156 0.563 0.281 0.424 0.519 0.903 1.029 1.438 1.531-0.035 0.024-0.056 0.055-0.063 0.094-0.253-0.032-0.503-0.084-0.75-0.156-0.702-0.341-1.411-0.664-2.125-0.969-1.769-1.727-3.519-3.477-5.25-5.25z"></path>
<path fill="#7b57f5" opacity="0.983" d="M3.219 23.094c0 0.958 0 1.917 0 2.875 0.847-0.157 1.702-0.261 2.563-0.313 0.323 0.407 0.698 0.74 1.125 1-1.225 0.018-2.434 0.164-3.625 0.438-0.354-0.396-0.729-0.771-1.125-1.125 0-1.188 0-2.375 0-3.563 0.041-0.056 0.083-0.119 0.125-0.188 0.314 0.293 0.626 0.585 0.938 0.875z"></path>
<path fill="#5488f4" opacity="0.97" d="M18.844 23.844c-0.009 0.066 0.001 0.128 0.031 0.188 0.236 0.204 0.434 0.433 0.594 0.688-0.271 0.323-0.531 0.657-0.781 1-0.042 0.042-0.042 0.083 0 0.125 0.728-0.494 1.489-0.932 2.281-1.313 0.254 0.254 0.483 0.525 0.688 0.813-0.61 0.327-1.214 0.671-1.813 1.031 0.269-0.041 0.54-0.093 0.813-0.156 0.275 0.274 0.525 0.566 0.75 0.875-0.477 0.135-0.956 0.281-1.438 0.438-0.75-0.771-1.5-1.542-2.25-2.313 0.353-0.478 0.728-0.936 1.125-1.375z"></path>
<path fill="#5a80f4" opacity="0.979" d="M17.719 25.219c0.75 0.771 1.5 1.542 2.25 2.313-0.276 0.075-0.547 0.169-0.813 0.281 0.021 0.021 0.042 0.042 0.063 0.063 0.395 0.031 0.791 0.042 1.188 0.031 0.297 0.328 0.609 0.651 0.938 0.969 0.138 0.012 0.263 0.043 0.375 0.094-0.792 0-1.583 0-2.375 0-0.069-0.049-0.153-0.081-0.25-0.094-0.74-0.74-1.479-1.479-2.219-2.219-0.012-0.082-0.002-0.166 0.031-0.25 0.247-0.413 0.518-0.809 0.813-1.188z"></path>
<path fill="#3da3f4" opacity="0.917" d="M30.844 25.406c0.052 0.322 0.083 0.655 0.094 1 0.315 0.325 0.638 0.638 0.969 0.938 0.010 0.938 0 1.875-0.031 2.813-0.088 0.265-0.265 0.432-0.531 0.5-0.371-0.267-0.705-0.58-1-0.938 0.167 0 0.333 0 0.5 0 0-1.438 0-2.875 0-4.313z"></path>
<path fill="#5f79f4" opacity="0.973" d="M15.469 24.969c0.051 0.112 0.082 0.237 0.094 0.375 0.292 0.292 0.583 0.583 0.875 0.875 0.017-0.057 0.049-0.099 0.094-0.125-0.010 0.272 0 0.542 0.031 0.813 0.082-0.195 0.196-0.362 0.344-0.5-0.033 0.084-0.043 0.168-0.031 0.25 0.74 0.74 1.479 1.479 2.219 2.219 0.097 0.013 0.181 0.044 0.25 0.094-0.147 0.010-0.293-0-0.438-0.031-0.367-0.194-0.742-0.371-1.125-0.531-0.252 0.126-0.502 0.251-0.75 0.375-0.521-0.5-1.042-1-1.563-1.5 0-0.771 0-1.542 0-2.313z"></path>
<path fill="#7360f5" opacity="0.962" d="M7.719 25.656c0.354 0.375 0.708 0.75 1.063 1.125-0.625-0.037-1.25-0.078-1.875-0.125-0.427-0.26-0.802-0.593-1.125-1 0.646-0.081 1.292-0.081 1.938 0z"></path>
<path fill="#4698f4" opacity="0.977" d="M26.344 25.656c0.333 0.396 0.667 0.792 1 1.188-0.829-0.109-1.662-0.172-2.5-0.188 0.007-0.039 0.028-0.070 0.063-0.094-0.304-0.294-0.596-0.596-0.875-0.906 0.771-0.083 1.542-0.083 2.313 0z"></path>
<path fill="#409ff4" opacity="0.982" d="M26.344 25.656c0.778 0.052 1.549 0.156 2.313 0.313-0.007 0.039-0.028 0.070-0.063 0.094 0.385 0.385 0.771 0.771 1.156 1.156 0.013-0.097 0.044-0.181 0.094-0.25 0.002 0.668-0.019 1.334-0.063 2-0.083 0-0.167 0-0.25 0-0.3-0.331-0.612-0.654-0.938-0.969 0.059-0.030 0.122-0.041 0.188-0.031 0.020-0.304-0.001-0.596-0.063-0.875-0.454-0.107-0.912-0.191-1.375-0.25-0.333-0.396-0.667-0.792-1-1.188z"></path>
<path fill="#6e67f5" opacity="0.96" d="M7.719 25.656c0.905 0.028 1.801 0.132 2.688 0.313 0.413 0.497 0.851 0.976 1.313 1.438-0.97-0.258-1.95-0.467-2.938-0.625-0.354-0.375-0.708-0.75-1.063-1.125z"></path>
<path fill="#4e8ef4" opacity="0.98" d="M24.031 25.656c0.279 0.31 0.571 0.612 0.875 0.906-0.035 0.024-0.056 0.055-0.063 0.094-1.157 0.059-2.302 0.205-3.438 0.438-0.225-0.309-0.475-0.601-0.75-0.875 1.102-0.309 2.227-0.496 3.375-0.563z"></path>
<path fill="#8150f5" opacity="0.962" d="M2.156 25.969c0.396 0.354 0.771 0.729 1.125 1.125-0.121 0.242-0.162 0.513-0.125 0.813 0.875 0 1.75 0 2.625 0 0.112 0.051 0.237 0.082 0.375 0.094 0.325 0.315 0.638 0.638 0.938 0.969-1.589 0.030-3.172-0.001-4.75-0.094-0.052-0.052-0.104-0.104-0.156-0.156-0.031-0.916-0.042-1.833-0.031-2.75z"></path>
<path fill="#785af4" opacity="0.941" d="M5.781 27.906c0.75 0 1.5 0 2.25 0 0.3 0.331 0.612 0.654 0.938 0.969-0.097 0.013-0.181 0.044-0.25 0.094-0.542 0-1.083 0-1.625 0-0.3-0.331-0.612-0.654-0.938-0.969-0.138-0.012-0.263-0.043-0.375-0.094z"></path>
<path fill="#7360f5" opacity="0.933" d="M8.031 27.906c0.646 0 1.292 0 1.938 0 0.3 0.331 0.612 0.654 0.938 0.969 0.159 0.012 0.304 0.043 0.438 0.094-0.875 0-1.75 0-2.625 0 0.069-0.049 0.153-0.081 0.25-0.094-0.325-0.315-0.638-0.638-0.938-0.969z"></path>
<path fill="#6e67f4" opacity="0.947" d="M9.969 27.906c0.771 0 1.542 0 2.313 0 0.293 0.335 0.606 0.648 0.938 0.938-0.061 0.030-0.123 0.062-0.188 0.094-0.562 0.031-1.125 0.042-1.688 0.031-0.133-0.051-0.279-0.082-0.438-0.094-0.325-0.315-0.638-0.638-0.938-0.969z"></path>
<path fill="#5586f4" opacity="0.951" d="M20.406 27.906c0.646 0 1.292 0 1.938 0 0.333 0.354 0.667 0.708 1 1.063-0.542 0-1.083 0-1.625 0-0.112-0.051-0.237-0.082-0.375-0.094-0.328-0.318-0.641-0.641-0.938-0.969z"></path>
<path fill="#508cf4" opacity="0.946" d="M22.344 27.906c0.542 0 1.083 0 1.625 0 0.133 0.051 0.279 0.082 0.438 0.094 0.325 0.315 0.638 0.638 0.938 0.969-0.667 0-1.333 0-2 0-0.333-0.354-0.667-0.708-1-1.063z"></path>
<path fill="#4b92f4" opacity="0.923" d="M23.969 27.906c0.667 0 1.333 0 2 0 0.112 0.051 0.237 0.082 0.375 0.094 0.325 0.315 0.638 0.638 0.938 0.969-0.646 0-1.292 0-1.938 0-0.3-0.331-0.612-0.654-0.938-0.969-0.159-0.012-0.304-0.043-0.438-0.094z"></path>
<path fill="#4698f4" opacity="0.93" d="M28.719 27.094c0.062 0.279 0.082 0.571 0.063 0.875-0.066-0.009-0.128 0.001-0.188 0.031 0.325 0.315 0.638 0.638 0.938 0.969-0.75 0-1.5 0-2.25 0-0.3-0.331-0.612-0.654-0.938-0.969-0.138-0.012-0.263-0.043-0.375-0.094 0.917 0 1.833 0 2.75 0 0-0.271 0-0.542 0-0.813z"></path>
<path fill="#5f79f5" opacity="0.956" d="M17.469 29.156c0.353 0.155 0.707 0.312 1.063 0.469 0.349 0.081 0.703 0.112 1.063 0.094 0.133 0.051 0.279 0.082 0.438 0.094 0.292 0.292 0.583 0.583 0.875 0.875-0.057 0.017-0.099 0.049-0.125 0.094-0.646 0-1.292 0-1.938 0 0.007-0.039 0.028-0.070 0.063-0.094-0.535-0.502-1.014-1.012-1.438-1.531z"></path>
<path fill="#6d66f5" opacity="0.959" d="M14.156 29.281c0.25 0.292 0.521 0.563 0.813 0.813-0.666 0.416-1.395 0.646-2.188 0.688-0.3-0.331-0.612-0.654-0.938-0.969-0.138-0.012-0.263-0.043-0.375-0.094 0.563 0.010 1.125 0 1.688-0.031 0.352-0.093 0.685-0.228 1-0.406z"></path>
<path fill="#8846f5" opacity="0.961" d="M0.031 23.844c0.331 0.3 0.654 0.612 0.969 0.938 0.011-0.2 0.043-0.387 0.094-0.563 0 1.833 0 3.667 0 5.5 0.75 0 1.5 0 2.25 0 0.112 0.051 0.237 0.082 0.375 0.094 0.325 0.315 0.638 0.638 0.938 0.969-1.313 0.010-2.625 0-3.938-0.031-0.319-0.090-0.537-0.288-0.656-0.594-0.031-2.104-0.042-4.208-0.031-6.313z"></path>
<path fill="#824ef5" opacity="0.945" d="M3.344 29.719c0.875 0 1.75 0 2.625 0 0.333 0.354 0.667 0.708 1 1.063-0.771 0-1.542 0-2.313 0-0.3-0.331-0.612-0.654-0.938-0.969-0.138-0.012-0.263-0.043-0.375-0.094z"></path>
<path fill="#7d54f5" opacity="0.937" d="M5.969 29.719c0.604 0 1.208 0 1.813 0 0.411 0.307 0.786 0.661 1.125 1.063-0.646 0-1.292 0-1.938 0-0.333-0.354-0.667-0.708-1-1.063z"></path>
<path fill="#785af5" opacity="0.942" d="M7.781 29.719c0.688 0 1.375 0 2.063 0 0.333 0.354 0.667 0.708 1 1.063-0.646 0-1.292 0-1.938 0-0.339-0.401-0.714-0.756-1.125-1.063z"></path>
<path fill="#7460f5" opacity="0.954" d="M9.844 29.719c0.542 0 1.083 0 1.625 0 0.112 0.051 0.237 0.082 0.375 0.094 0.325 0.315 0.638 0.638 0.938 0.969-0.646 0-1.292 0-1.938 0-0.333-0.354-0.667-0.708-1-1.063z"></path>
<path fill="#5a80f4" opacity="0.94" d="M19.594 29.719c0.875 0 1.75 0 2.625 0 0.33 0.351 0.664 0.705 1 1.063-0.813 0-1.625 0-2.438 0 0.026-0.045 0.068-0.076 0.125-0.094-0.292-0.292-0.583-0.583-0.875-0.875-0.159-0.012-0.304-0.043-0.438-0.094z"></path>
<path fill="#5586f4" opacity="0.957" d="M22.219 29.719c0.542 0 1.083 0 1.625 0 0.112 0.051 0.237 0.082 0.375 0.094 0.325 0.315 0.638 0.638 0.938 0.969-0.646 0-1.292 0-1.938 0-0.336-0.357-0.67-0.711-1-1.063z"></path>
<path fill="#508cf4" opacity="0.945" d="M23.844 29.719c0.771 0 1.542 0 2.313 0 0.333 0.354 0.667 0.708 1 1.063-0.667 0-1.333 0-2 0-0.3-0.331-0.612-0.654-0.938-0.969-0.138-0.012-0.263-0.043-0.375-0.094z"></path>
<path fill="#4b92f4" opacity="0.934" d="M26.156 29.719c0.542 0 1.083 0 1.625 0 0.112 0.051 0.237 0.082 0.375 0.094 0.325 0.315 0.638 0.638 0.938 0.969-0.646 0-1.292 0-1.938 0-0.333-0.354-0.667-0.708-1-1.063z"></path>
<path fill="#4698f4" opacity="0.939" d="M27.781 29.719c0.854 0 1.708 0 2.563 0 0.295 0.358 0.629 0.67 1 0.938-0.026 0.045-0.068 0.076-0.125 0.094-0.708 0.031-1.416 0.042-2.125 0.031-0.3-0.331-0.612-0.654-0.938-0.969-0.138-0.012-0.263-0.043-0.375-0.094z"></path>
</svg>
