<?xml version="1.0" encoding="UTF-8"?>
<!DOCTYPE svg PUBLIC "-//W3C//DTD SVG 1.1//EN" "http://www.w3.org/Graphics/SVG/1.1/DTD/svg11.dtd">
<svg xmlns="http://www.w3.org/2000/svg" version="1.1" width="512px" height="512px" style="shape-rendering:geometricPrecision; text-rendering:geometricPrecision; image-rendering:optimizeQuality; fill-rule:evenodd; clip-rule:evenodd" xmlns:xlink="http://www.w3.org/1999/xlink">
<g><path style="opacity:0.985" fill="#000000" d="M 511.5,259.5 C 511.5,328.833 511.5,398.167 511.5,467.5C 505.01,482.579 493.677,488.412 477.5,485C 455.173,472.839 433.173,460.172 411.5,447C 409.787,445.622 408.453,443.955 407.5,442C 400.842,441.5 394.175,441.334 387.5,441.5C 387.909,452.896 387.409,464.23 386,475.5C 381.833,485 375,491.833 365.5,496C 321.546,497.645 277.546,497.979 233.5,497C 229.848,494.855 228.182,491.689 228.5,487.5C 228.844,483.316 230.844,480.149 234.5,478C 275.5,477.667 316.5,477.333 357.5,477C 362,475.167 365.167,472 367,467.5C 367.667,398.167 367.667,328.833 367,259.5C 365.167,255 362,251.833 357.5,250C 248.167,249.333 138.833,249.333 29.5,250C 25,251.833 21.8333,255 20,259.5C 19.3333,328.833 19.3333,398.167 20,467.5C 21.8333,472 25,475.167 29.5,477C 69.8333,477.333 110.167,477.667 150.5,478C 155.617,479.053 158.284,482.219 158.5,487.5C 158.818,491.689 157.152,494.855 153.5,497C 110.833,497.667 68.1667,497.667 25.5,497C 12.3175,492.983 3.65084,484.483 -0.5,471.5C -0.5,399.5 -0.5,327.5 -0.5,255.5C 4.52159,239.988 15.1883,231.155 31.5,229C 14.4881,214.141 3.8214,195.641 -0.5,173.5C -0.5,164.167 -0.5,154.833 -0.5,145.5C 8.32025,103.847 33.6536,78.6801 75.5,70C 109.693,65.7224 137.859,76.5557 160,102.5C 174.435,55.3966 205.602,26.2299 253.5,15C 307.092,7.7201 348.592,26.5534 378,71.5C 395.584,104.652 398.25,138.985 386,174.5C 377.047,197.117 362.547,215.284 342.5,229C 358.497,226.447 371.664,231.28 382,243.5C 384.225,247.281 385.891,251.281 387,255.5C 387.5,265.494 387.666,275.494 387.5,285.5C 394.175,285.666 400.842,285.5 407.5,285C 408.453,283.045 409.787,281.378 411.5,280C 433.173,266.828 455.173,254.161 477.5,242C 493.686,238.592 505.02,244.426 511.5,259.5 Z M 173.5,192.5 C 182.509,206.681 193.842,218.848 207.5,229C 187.5,229.667 167.5,229.667 147.5,229C 159.481,219.187 168.148,207.02 173.5,192.5 Z"/></g>
<g><path style="opacity:1" fill="#848ea3" d="M 262.5,33.5 C 304.488,30.7452 336.988,46.7452 360,81.5C 379.658,119.048 377.658,155.381 354,190.5C 326.156,223.671 290.989,235.504 248.5,226C 208.532,212.56 185.032,185.06 178,143.5C 175.039,101.923 190.873,69.7561 225.5,47C 237.195,40.3829 249.529,35.8829 262.5,33.5 Z"/></g>
<g><path style="opacity:1" fill="#020203" d="M 265.5,53.5 C 312.825,52.3438 341.991,74.6771 353,120.5C 355.782,160.295 339.115,188.295 303,204.5C 263.884,216.258 232.55,205.592 209,172.5C 189.456,135.616 194.289,102.45 223.5,73C 235.937,62.9456 249.937,56.4456 265.5,53.5 Z"/></g>
<g><path style="opacity:1" fill="#d1d5dd" d="M 266.5,73.5 C 301.96,71.9653 324.127,88.2986 333,122.5C 334.617,158.793 317.784,180.96 282.5,189C 257.518,191.092 238.352,181.592 225,160.5C 210.258,127.962 217.424,101.462 246.5,81C 252.96,77.5884 259.627,75.0884 266.5,73.5 Z"/></g>
<g><path style="opacity:1" fill="#969fb1" d="M 78.5,89.5 C 110.858,87.2604 135.358,99.927 152,127.5C 166.388,161.333 159.888,190.5 132.5,215C 96.1617,237.994 63.3283,233.827 34,202.5C 11.0285,166.17 15.1952,133.337 46.5,104C 56.3111,97.1253 66.9777,92.292 78.5,89.5 Z"/></g>
<g><path style="opacity:1" fill="#080808" d="M 271.5,94.5 C 282.775,93.7504 286.942,98.7504 284,109.5C 276.515,116.868 270.515,115.868 266,106.5C 264.873,101.089 266.707,97.0891 271.5,94.5 Z"/></g>
<g><path style="opacity:1" fill="#020202" d="M 82.5,113.5 C 110.713,112.227 128.213,125.227 135,152.5C 136.522,181.634 123.022,199.134 94.5,205C 74.4623,206.565 59.2957,198.731 49,181.5C 38.0031,155.497 44.1698,134.664 67.5,119C 72.4337,116.637 77.4337,114.804 82.5,113.5 Z"/></g>
<g><path style="opacity:1" fill="#060606" d="M 244.5,121.5 C 254.503,121.002 258.67,125.668 257,135.5C 254.259,140.419 250.092,142.252 244.5,141C 238.975,138.081 237.142,133.581 239,127.5C 240.36,124.977 242.193,122.977 244.5,121.5 Z"/></g>
<g><path style="opacity:1" fill="#080808" d="M 299.5,121.5 C 312.08,122.166 315.414,127.999 309.5,139C 301.829,143.532 296.329,141.698 293,133.5C 292.339,127.989 294.506,123.989 299.5,121.5 Z"/></g>
<g><path style="opacity:1" fill="#d0d4dc" d="M 83.5,133.5 C 99.2758,131.966 109.776,138.633 115,153.5C 117.022,169.292 110.522,179.792 95.5,185C 79.708,187.022 69.208,180.522 64,165.5C 62.1008,149.62 68.6008,138.953 83.5,133.5 Z"/></g>
<g><path style="opacity:1" fill="#080808" d="M 272.5,148.5 C 284.167,149.308 287.667,154.974 283,165.5C 277.391,169.716 272.058,169.383 267,164.5C 264.024,157.462 265.857,152.129 272.5,148.5 Z"/></g>
<g><path style="opacity:1" fill="#858fa5" d="M 228.5,487.5 C 220.167,487.5 211.833,487.5 203.5,487.5C 203.123,480.957 199.623,477.624 193,477.5C 186.921,478.079 183.754,481.412 183.5,487.5C 175.167,487.5 166.833,487.5 158.5,487.5C 158.284,482.219 155.617,479.053 150.5,478C 110.167,477.667 69.8333,477.333 29.5,477C 25,475.167 21.8333,472 20,467.5C 19.3333,398.167 19.3333,328.833 20,259.5C 21.8333,255 25,251.833 29.5,250C 138.833,249.333 248.167,249.333 357.5,250C 362,251.833 365.167,255 367,259.5C 367.667,328.833 367.667,398.167 367,467.5C 365.167,472 362,475.167 357.5,477C 316.5,477.333 275.5,477.667 234.5,478C 230.844,480.149 228.844,483.316 228.5,487.5 Z"/></g>
<g><path style="opacity:1" fill="#9ac5fe" d="M 482.5,261.5 C 485.97,260.875 488.804,261.875 491,264.5C 491.667,330.167 491.667,395.833 491,461.5C 489.309,465.213 486.475,466.379 482.5,465C 464.333,454.167 446.167,443.333 428,432.5C 427.333,386.5 427.333,340.5 428,294.5C 446.338,283.637 464.504,272.637 482.5,261.5 Z"/></g>
<g><path style="opacity:1" fill="#020202" d="M 298.5,277.5 C 324.891,276.734 338.391,289.401 339,315.5C 334.242,337.144 320.742,346.978 298.5,345C 278.985,338.467 270.152,324.967 272,304.5C 276.085,290.732 284.918,281.732 298.5,277.5 Z"/></g>
<g><path style="opacity:1" fill="#f1717d" d="M 301.5,297.5 C 316.75,297.899 321.917,305.233 317,319.5C 309.3,327.413 301.633,327.413 294,319.5C 289.399,309.709 291.899,302.375 301.5,297.5 Z"/></g>
<g><path style="opacity:1" fill="#97a1b2" d="M 387.5,305.5 C 394.167,305.5 400.833,305.5 407.5,305.5C 407.5,344.167 407.5,382.833 407.5,421.5C 400.833,421.5 394.167,421.5 387.5,421.5C 387.5,382.833 387.5,344.167 387.5,305.5 Z"/></g>
<g><path style="opacity:1" fill="#000000" d="M 59.5,333.5 C 119.501,333.333 179.501,333.5 239.5,334C 243.527,334.427 246.027,336.594 247,340.5C 247.667,374.167 247.667,407.833 247,441.5C 246.5,446 244,448.5 239.5,449C 179.833,449.667 120.167,449.667 60.5,449C 56.5936,448.027 54.427,445.527 54,441.5C 53.3333,407.833 53.3333,374.167 54,340.5C 54.9668,337.379 56.8001,335.046 59.5,333.5 Z"/></g>
<g><path style="opacity:1" fill="#e0e3e8" d="M 73.5,353.5 C 124.833,353.5 176.167,353.5 227.5,353.5C 227.5,378.833 227.5,404.167 227.5,429.5C 176.167,429.5 124.833,429.5 73.5,429.5C 73.5,404.167 73.5,378.833 73.5,353.5 Z"/></g>
<g><path style="opacity:1" fill="#000000" d="M 277.5,373.5 C 295.503,373.333 313.503,373.5 331.5,374C 335.527,374.427 338.027,376.594 339,380.5C 339.667,398.167 339.667,415.833 339,433.5C 338.5,438 336,440.5 331.5,441C 313.833,441.667 296.167,441.667 278.5,441C 274.594,440.027 272.427,437.527 272,433.5C 271.333,415.833 271.333,398.167 272,380.5C 272.967,377.379 274.8,375.046 277.5,373.5 Z"/></g>
<g><path style="opacity:1" fill="#fecb7b" d="M 291.5,393.5 C 300.833,393.5 310.167,393.5 319.5,393.5C 319.5,402.833 319.5,412.167 319.5,421.5C 310.167,421.5 300.833,421.5 291.5,421.5C 291.5,412.167 291.5,402.833 291.5,393.5 Z"/></g>
<g><path style="opacity:0.948" fill="#020202" d="M 203.5,487.5 C 203.507,494.16 200.174,497.493 193.5,497.5C 186.826,497.493 183.493,494.16 183.5,487.5C 183.754,481.412 186.921,478.079 193,477.5C 199.623,477.624 203.123,480.957 203.5,487.5 Z"/></g>
</svg>
