<svg width="20" height="21" viewBox="0 0 20 21" fill="none" xmlns="http://www.w3.org/2000/svg">
<path fill-rule="evenodd" clip-rule="evenodd" d="M6.41265 11.6592C5.87535 11.6592 5.43884 11.2227 5.43884 10.6854C5.43884 10.1496 5.87535 9.71313 6.41265 9.71313C6.94995 9.71313 7.38646 10.1496 7.38646 10.6854C7.38646 11.2227 6.94995 11.6592 6.41265 11.6592ZM10.1983 11.6592C9.66105 11.6592 9.22454 11.2227 9.22454 10.6854C9.22454 10.1496 9.66105 9.71313 10.1983 9.71313C10.7357 9.71313 11.1722 10.1496 11.1722 10.6854C11.1722 11.2227 10.7357 11.6592 10.1983 11.6592ZM13.0104 10.6854C13.0104 11.2227 13.4469 11.6592 13.9842 11.6592C14.5215 11.6592 14.958 11.2227 14.958 10.6854C14.958 10.1496 14.5215 9.71313 13.9842 9.71313C13.4469 9.71313 13.0104 10.1496 13.0104 10.6854Z" fill="url(#paint0_linear_305_1249)"/>
<path fill-rule="evenodd" clip-rule="evenodd" d="M10.0166 2.16675C5.17496 2.16675 1.66663 6.12185 1.66663 10.5126C1.66663 11.9147 2.07496 13.3577 2.79163 14.6763C2.92496 14.8942 2.94163 15.1688 2.84996 15.4283L2.29163 17.2978C2.16663 17.7485 2.54996 18.0815 2.97496 17.9479L4.65829 17.448C5.11663 17.2978 5.47496 17.4889 5.89996 17.7485C7.11663 18.4654 8.63329 18.8334 9.99996 18.8334C14.1333 18.8334 18.3333 15.637 18.3333 10.4876C18.3333 6.04674 14.75 2.16675 10.0166 2.16675Z" stroke="url(#paint1_linear_305_1249)" stroke-width="1.5" stroke-linecap="round" stroke-linejoin="round"/>
<defs>
<linearGradient id="paint0_linear_305_1249" x1="14.958" y1="11.6592" x2="5.34427" y2="10.8801" gradientUnits="userSpaceOnUse">
<stop stop-color="#888BF4"/>
<stop offset="1" stop-color="#5151C6"/>
</linearGradient>
<linearGradient id="paint1_linear_305_1249" x1="18.3333" y1="18.8334" x2="1.39515" y2="18.5528" gradientUnits="userSpaceOnUse">
<stop stop-color="#888BF4"/>
<stop offset="1" stop-color="#5151C6"/>
</linearGradient>
</defs>
</svg>
