<!-- Generated by IcoMoon.io -->
<svg version="1.1" xmlns="http://www.w3.org/2000/svg" width="32" height="32" viewBox="0 0 32 32">
<title>comment</title>
<path d="M32 15.814c-0.32-2.492-1.32-4.67-3-6.531 0.831-1.714 1.654-3.433 2.469-5.156 0.356-1.121 0.033-1.986-0.969-2.594-0.445-0.191-0.883-0.4-1.313-0.625-0.993-0.421-1.857-0.244-2.594 0.531-0.767 1.555-1.517 3.117-2.25 4.688-0.035 0.033-0.077 0.053-0.125 0.063-0.8-0.281-1.623-0.458-2.469-0.531-3.833-0.042-7.667-0.042-11.5 0-1.123 0.114-2.206 0.385-3.25 0.813-4.037 1.839-6.37 4.953-7 9.344 0 0.958 0 1.917 0 2.875 0.369 2.905 1.629 5.342 3.781 7.313-0.018 1.523-0.090 3.044-0.219 4.563 0.101 0.677 0.476 0.896 1.125 0.656 1.458-0.75 2.917-1.5 4.375-2.25 1.755-0.001 3.505-0.043 5.25-0.125 0.263-0.31 0.243-0.602-0.063-0.875-1.813-0.042-3.625-0.042-5.438 0-1.383 0.681-2.758 1.379-4.125 2.094-0.021-0.115-0.042-0.229-0.063-0.344 0.072-1.293 0.155-2.585 0.25-3.875-0.031-0.094-0.063-0.188-0.094-0.281-0.313-0.292-0.625-0.583-0.938-0.875-2.648-3.029-3.481-6.508-2.5-10.438 1.434-4.368 4.424-6.899 8.969-7.594 3.792-0.042 7.583-0.042 11.375 0 0.75 0.079 1.479 0.246 2.188 0.5-0.593 1.144-1.134 2.311-1.625 3.5 0.013 0.15 0.075 0.275 0.188 0.375 0.307 0.162 0.567 0.11 0.781-0.156 0.962-2.112 1.973-4.196 3.031-6.25 1.063 0.49 2.105 1.011 3.125 1.563-1.886 3.939-3.772 7.877-5.656 11.813-1.071-0.492-2.123-1.013-3.156-1.563 0.638-1.277 1.242-2.568 1.813-3.875-0.208-0.548-0.531-0.631-0.969-0.25-0.667 1.417-1.333 2.833-2 4.25-0.146 1.748-0.26 3.498-0.344 5.25-4.021-0.010-8.042 0-12.063 0.031-0.089 0.029-0.162 0.081-0.219 0.156-0.169 0.332-0.096 0.593 0.219 0.781 4.063 0.021 8.125 0.042 12.188 0.063 0.317 0.263 0.651 0.283 1 0.063 1.4-1.309 2.807-2.611 4.219-3.906 1.358-2.903 2.733-5.799 4.125-8.688 0.78 0.886 1.384 1.886 1.813 3 0.978 2.814 0.915 5.606-0.188 8.375-1.797 3.696-4.745 5.769-8.844 6.219-1.813 0.021-3.625 0.042-5.438 0.063-0.073 0.073-0.146 0.146-0.219 0.219-0.108 0.327-0.014 0.567 0.281 0.719 2.022 0.057 4.043 0.036 6.063-0.063 0.833-0.099 1.646-0.286 2.438-0.563 4.349-1.755 6.87-4.953 7.563-9.594 0-0.958 0-1.917 0-2.875zM27.938 1.689c0.402-0.016 0.777 0.078 1.125 0.281 0.484 0.205 0.932 0.466 1.344 0.781 0.189 0.243 0.252 0.514 0.188 0.813-0.244 0.551-0.505 1.093-0.781 1.625-1.064-0.511-2.127-1.022-3.188-1.531 0.26-0.53 0.521-1.061 0.781-1.594 0.167-0.15 0.344-0.275 0.531-0.375zM20.313 17.502c0.925 0.431 1.841 0.879 2.75 1.344-0.425 0.363-0.831 0.748-1.219 1.156-0.564-0.258-1.116-0.539-1.656-0.844 0.070-0.547 0.112-1.099 0.125-1.656zM20.125 20.314c0.308 0.112 0.599 0.258 0.875 0.438-0.31 0.279-0.612 0.57-0.906 0.875-0-0.437 0.010-0.874 0.031-1.313z"></path>
<path d="M7.063 11.752c2.146-0.010 4.292 0 6.438 0.031 0.46 0.293 0.481 0.606 0.063 0.938-2.208 0.042-4.417 0.042-6.625 0-0.361-0.387-0.319-0.71 0.125-0.969z"></path>
<path d="M7 15.127c3.542-0.010 7.083 0 10.625 0.031 0.257 0.219 0.309 0.48 0.156 0.781-0.073 0.087-0.167 0.139-0.281 0.156-3.479 0.042-6.958 0.042-10.438 0-0.372-0.152-0.466-0.412-0.281-0.781 0.072-0.071 0.144-0.133 0.219-0.188z"></path>
<path d="M7.125 18.439c3.438-0.010 6.875 0 10.313 0.031 0.385 0.092 0.52 0.331 0.406 0.719-0.073 0.073-0.146 0.146-0.219 0.219-3.563 0.042-7.125 0.042-10.688 0-0.377-0.418-0.314-0.741 0.188-0.969z"></path>
</svg>
