<!-- Generated by IcoMoon.io -->
<svg version="1.1" xmlns="http://www.w3.org/2000/svg" width="32" height="32" viewBox="0 0 32 32">
<title>delete_cross</title>
<path d="M30.76 24.77l-8.77-8.77 8.77-8.77c1.654-1.654 1.654-4.335 0-5.989s-4.335-1.654-5.989 0l-8.771 8.77-8.77-8.771c-1.655-1.654-4.336-1.654-5.989 0s-1.654 4.336 0 5.989l8.771 8.77-8.771 8.77c-1.654 1.655-1.654 4.336 0 5.989 0.828 0.827 1.911 1.24 2.995 1.24s2.168-0.414 2.995-1.24l8.769-8.769 8.771 8.77c0.828 0.827 1.911 1.24 2.995 1.24s2.168-0.414 2.995-1.24c1.653-1.654 1.653-4.335-0.001-5.989z"></path>
</svg>
