<!-- Generated by IcoMoon.io -->
<svg version="1.1" xmlns="http://www.w3.org/2000/svg" width="32" height="32" viewBox="0 0 32 32">
<title>exit</title>
<path fill="#0fe4fe" opacity="0.973" d="M4.281-0.031c0.167 0 0.333 0 0.5 0 0 0.854 0 1.708 0 2.563-0.612 0.067-1.133 0.317-1.563 0.75 0-1 0-2 0-3 0.352-0.135 0.706-0.239 1.063-0.313z"></path>
<path fill="#13e1fe" opacity="0.978" d="M4.781-0.031c0.083 0 0.167 0 0.25 0 0 0.833 0 1.667 0 2.5-0.067 0.058-0.15 0.079-0.25 0.063 0-0.854 0-1.708 0-2.563z"></path>
<path fill="#15defe" d="M5.031-0.031c0.438 0 0.875 0 1.313 0 0 0.833 0 1.667 0 2.5-0.438 0-0.875 0-1.313 0 0-0.833 0-1.667 0-2.5z"></path>
<path fill="#19dbfe" d="M6.344-0.031c0.167 0 0.333 0 0.5 0 0 0.833 0 1.667 0 2.5-0.167 0-0.333 0-0.5 0 0-0.833 0-1.667 0-2.5z"></path>
<path fill="#1cd8fe" d="M6.844-0.031c0.458 0 0.917 0 1.375 0 0 0.833 0 1.667 0 2.5-0.458 0-0.917 0-1.375 0 0-0.833 0-1.667 0-2.5z"></path>
<path fill="#20d5fe" d="M8.219-0.031c0.146 0 0.292 0 0.438 0 0 0.833 0 1.667 0 2.5-0.146 0-0.292 0-0.438 0 0-0.833 0-1.667 0-2.5z"></path>
<path fill="#23d2fe" d="M8.656-0.031c0.417 0 0.833 0 1.25 0 0 0.833 0 1.667 0 2.5-0.417 0-0.833 0-1.25 0 0-0.833 0-1.667 0-2.5z"></path>
<path fill="#26cffe" d="M9.906-0.031c0.292 0 0.583 0 0.875 0 0 0.833 0 1.667 0 2.5-0.292 0-0.583 0-0.875 0 0-0.833 0-1.667 0-2.5z"></path>
<path fill="#29ccfe" d="M10.781-0.031c0.417 0 0.833 0 1.25 0 0 0.833 0 1.667 0 2.5-0.417 0-0.833 0-1.25 0 0-0.833 0-1.667 0-2.5z"></path>
<path fill="#2dc9fe" d="M12.031-0.031c0.521 0 1.042 0 1.563 0 0 0.833 0 1.667 0 2.5-0.521 0-1.042 0-1.563 0 0-0.833 0-1.667 0-2.5z"></path>
<path fill="#30c6fe" d="M13.594-0.031c0.167 0 0.333 0 0.5 0 0 0.833 0 1.667 0 2.5-0.167 0-0.333 0-0.5 0 0-0.833 0-1.667 0-2.5z"></path>
<path fill="#34c3fe" d="M14.094-0.031c0.625 0 1.25 0 1.875 0 0 0.833 0 1.667 0 2.5-0.625 0-1.25 0-1.875 0 0-0.833 0-1.667 0-2.5z"></path>
<path fill="#37c0fe" d="M15.969-0.031c0.188 0 0.375 0 0.563 0 0 0.833 0 1.667 0 2.5-0.188 0-0.375 0-0.563 0 0-0.833 0-1.667 0-2.5z"></path>
<path fill="#3bbdfe" opacity="0.988" d="M16.531-0.031c0.604 0 1.208 0 1.813 0 0.089 0.059 0.193 0.080 0.313 0.063 0 0.896 0 1.792 0 2.688-0.692-0.206-1.4-0.29-2.125-0.25 0-0.833 0-1.667 0-2.5z"></path>
<path fill="#3ebbfe" opacity="0.968" d="M18.656 0.031c0.178 0.044 0.345 0.107 0.5 0.188 0 0.938 0 1.875 0 2.813-0.188-0.073-0.355-0.177-0.5-0.313 0-0.896 0-1.792 0-2.688z"></path>
<path fill="#41b7fe" opacity="0.981" d="M19.156 0.219c1.065 0.34 1.93 0.965 2.594 1.875 0.19 0.296 0.346 0.609 0.469 0.938 0 1.792 0 3.583 0 5.375-0.569 0.405-1.152 0.415-1.75 0.031-0.166-0.167-0.281-0.365-0.344-0.594-0.007-1.127-0.049-2.252-0.125-3.375-0.153-0.556-0.434-1.036-0.844-1.438 0-0.938 0-1.875 0-2.813z"></path>
<path fill="#0ce7fe" opacity="0.965" d="M3.219 0.281c0 1 0 2 0 3-0.069 0.118-0.152 0.222-0.25 0.313 0-1.063 0-2.125 0-3.188 0.063-0.073 0.147-0.115 0.25-0.125z"></path>
<path fill="#08eafe" opacity="0.992" d="M2.969 0.406c0 1.063 0 2.125 0 3.188-0.251 0.42-0.386 0.878-0.406 1.375-0.042 7.333-0.042 14.667 0 22 0.020 0.497 0.155 0.955 0.406 1.375 0 1.063 0 2.125 0 3.188-0.546-0.189-1.004-0.502-1.375-0.938 0-9.75 0-19.5 0-29.25 0.371-0.436 0.829-0.748 1.375-0.938z"></path>
<path fill="#05ecfe" opacity="0.997" d="M1.594 1.344c0 9.75 0 19.5 0 29.25-0.167-0.125-0.313-0.271-0.438-0.438 0-9.458 0-18.917 0-28.375 0.125-0.167 0.271-0.313 0.438-0.438z"></path>
<path fill="#02effe" opacity="0.992" d="M1.156 1.781c0 9.458 0 18.917 0 28.375-0.599-0.699-0.964-1.511-1.094-2.438-0.042-7.833-0.042-15.667 0-23.5 0.13-0.926 0.495-1.739 1.094-2.438z"></path>
<path fill="#44b5fe" opacity="0.959" d="M22.219 3.031c0.181 0.369 0.296 0.765 0.344 1.188 0.042 1.208 0.042 2.417 0 3.625-0.055 0.23-0.169 0.418-0.344 0.563 0-1.792 0-3.583 0-5.375z"></path>
<path fill="#4baffe" opacity="0.96" d="M27.969 10.781c0 1.146 0 2.292 0 3.438-0.54-0.508-1.071-1.029-1.594-1.563-0.43-0.877-0.211-1.533 0.656-1.969 0.271-0.042 0.542-0.042 0.813 0 0.057 0.017 0.099 0.049 0.125 0.094z"></path>
<path fill="#4dadfe" opacity="0.981" d="M27.969 10.781c0.089 0.013 0.172 0.044 0.25 0.094 1.052 1.052 2.104 2.104 3.156 3.156 0.267 0.367 0.465 0.763 0.594 1.188 0 0.542 0 1.083 0 1.625-0.129 0.424-0.327 0.82-0.594 1.188-1.052 1.052-2.104 2.104-3.156 3.156-0.078 0.049-0.161 0.081-0.25 0.094 0-1.146 0-2.292 0-3.438 0.154-0.185 0.321-0.362 0.5-0.531-0.165-0.031-0.332-0.041-0.5-0.031 0-0.833 0-1.667 0-2.5 0.168 0.010 0.335-0 0.5-0.031-0.179-0.169-0.346-0.346-0.5-0.531 0-1.146 0-2.292 0-3.438z"></path>
<path fill="#2ec8fe" opacity="0.953" d="M13.594 14.781c0 0.833 0 1.667 0 2.5-0.845 0.009-1.282-0.407-1.313-1.25 0.030-0.843 0.468-1.259 1.313-1.25z"></path>
<path fill="#30c6fe" d="M13.594 14.781c0.167 0 0.333 0 0.5 0 0 0.833 0 1.667 0 2.5-0.167 0-0.333 0-0.5 0 0-0.833 0-1.667 0-2.5z"></path>
<path fill="#34c3fe" d="M14.094 14.781c0.625 0 1.25 0 1.875 0 0 0.833 0 1.667 0 2.5-0.625 0-1.25 0-1.875 0 0-0.833 0-1.667 0-2.5z"></path>
<path fill="#37c0fe" d="M15.969 14.781c0.188 0 0.375 0 0.563 0 0 0.833 0 1.667 0 2.5-0.188 0-0.375 0-0.563 0 0-0.833 0-1.667 0-2.5z"></path>
<path fill="#3bbdfe" d="M16.531 14.781c0.708 0 1.417 0 2.125 0 0 0.833 0 1.667 0 2.5-0.708 0-1.417 0-2.125 0 0-0.833 0-1.667 0-2.5z"></path>
<path fill="#3ebbfe" d="M18.656 14.781c0.167 0 0.333 0 0.5 0 0 0.833 0 1.667 0 2.5-0.167 0-0.333 0-0.5 0 0-0.833 0-1.667 0-2.5z"></path>
<path fill="#41b8fe" d="M19.156 14.781c1.021 0 2.042 0 3.063 0 0 0.833 0 1.667 0 2.5-1.021 0-2.042 0-3.063 0 0-0.833 0-1.667 0-2.5z"></path>
<path fill="#44b5fe" d="M22.219 14.781c0.083 0 0.167 0 0.25 0 0 0.833 0 1.667 0 2.5-0.083 0-0.167 0-0.25 0 0-0.833 0-1.667 0-2.5z"></path>
<path fill="#47b2fe" d="M22.469 14.781c1.229 0 2.458 0 3.688 0 0 0.833 0 1.667 0 2.5-1.229 0-2.458 0-3.688 0 0-0.833 0-1.667 0-2.5z"></path>
<path fill="#4baffe" d="M26.156 14.781c0.604 0 1.208 0 1.813 0 0 0.833 0 1.667 0 2.5-0.604 0-1.208 0-1.813 0 0-0.833 0-1.667 0-2.5z"></path>
<path fill="#4baffe" opacity="0.96" d="M27.969 17.844c0 1.146 0 2.292 0 3.438-0.749 0.298-1.321 0.090-1.719-0.625-0.148-0.436-0.106-0.852 0.125-1.25 0.523-0.534 1.054-1.054 1.594-1.563z"></path>
<path fill="#41b7fe" opacity="0.981" d="M22.219 23.531c0 1.792 0 3.583 0 5.375-0.427 1.021-1.114 1.823-2.063 2.406-0.314 0.188-0.647 0.324-1 0.406 0-0.938 0-1.875 0-2.813 0.409-0.402 0.691-0.881 0.844-1.438 0.076-1.123 0.118-2.248 0.125-3.375 0.282-0.73 0.813-1.011 1.594-0.844 0.199 0.047 0.366 0.141 0.5 0.281z"></path>
<path fill="#44b5fe" opacity="0.959" d="M22.219 23.531c0.175 0.145 0.289 0.332 0.344 0.563 0.042 1.208 0.042 2.417 0 3.625-0.048 0.422-0.163 0.818-0.344 1.188 0-1.792 0-3.583 0-5.375z"></path>
<path fill="#0ce7fe" opacity="0.965" d="M2.969 28.344c0.098 0.090 0.181 0.194 0.25 0.313 0 1 0 2 0 3-0.103-0.010-0.187-0.052-0.25-0.125 0-1.063 0-2.125 0-3.188z"></path>
<path fill="#0fe4fe" opacity="0.973" d="M3.219 28.656c0.429 0.433 0.95 0.683 1.563 0.75 0 0.854 0 1.708 0 2.563-0.167 0-0.333 0-0.5 0-0.357-0.074-0.711-0.178-1.063-0.313 0-1 0-2 0-3z"></path>
<path fill="#3ebbfe" opacity="0.968" d="M19.156 28.906c0 0.938 0 1.875 0 2.813-0.155 0.081-0.322 0.143-0.5 0.188 0-0.896 0-1.792 0-2.688 0.145-0.135 0.312-0.239 0.5-0.313z"></path>
<path fill="#3bbdfe" opacity="0.988" d="M18.656 29.219c0 0.896 0 1.792 0 2.688-0.12-0.018-0.224 0.003-0.313 0.063-0.604 0-1.208 0-1.813 0 0-0.833 0-1.667 0-2.5 0.725 0.040 1.433-0.044 2.125-0.25z"></path>
<path fill="#13e1fe" opacity="0.978" d="M4.781 29.406c0.1-0.017 0.183 0.004 0.25 0.063 0 0.833 0 1.667 0 2.5-0.083 0-0.167 0-0.25 0 0-0.854 0-1.708 0-2.563z"></path>
<path fill="#15defe" d="M5.031 29.469c0.438 0 0.875 0 1.313 0 0 0.833 0 1.667 0 2.5-0.438 0-0.875 0-1.313 0 0-0.833 0-1.667 0-2.5z"></path>
<path fill="#19dbfe" d="M6.344 29.469c0.167 0 0.333 0 0.5 0 0 0.833 0 1.667 0 2.5-0.167 0-0.333 0-0.5 0 0-0.833 0-1.667 0-2.5z"></path>
<path fill="#1cd8fe" d="M6.844 29.469c0.458 0 0.917 0 1.375 0 0 0.833 0 1.667 0 2.5-0.458 0-0.917 0-1.375 0 0-0.833 0-1.667 0-2.5z"></path>
<path fill="#20d5fe" d="M8.219 29.469c0.146 0 0.292 0 0.438 0 0 0.833 0 1.667 0 2.5-0.146 0-0.292 0-0.438 0 0-0.833 0-1.667 0-2.5z"></path>
<path fill="#23d2fe" d="M8.656 29.469c0.417 0 0.833 0 1.25 0 0 0.833 0 1.667 0 2.5-0.417 0-0.833 0-1.25 0 0-0.833 0-1.667 0-2.5z"></path>
<path fill="#26cffe" d="M9.906 29.469c0.292 0 0.583 0 0.875 0 0 0.833 0 1.667 0 2.5-0.292 0-0.583 0-0.875 0 0-0.833 0-1.667 0-2.5z"></path>
<path fill="#29ccfe" d="M10.781 29.469c0.417 0 0.833 0 1.25 0 0 0.833 0 1.667 0 2.5-0.417 0-0.833 0-1.25 0 0-0.833 0-1.667 0-2.5z"></path>
<path fill="#2dc9fe" d="M12.031 29.469c0.521 0 1.042 0 1.563 0 0 0.833 0 1.667 0 2.5-0.521 0-1.042 0-1.563 0 0-0.833 0-1.667 0-2.5z"></path>
<path fill="#30c6fe" d="M13.594 29.469c0.167 0 0.333 0 0.5 0 0 0.833 0 1.667 0 2.5-0.167 0-0.333 0-0.5 0 0-0.833 0-1.667 0-2.5z"></path>
<path fill="#34c3fe" d="M14.094 29.469c0.625 0 1.25 0 1.875 0 0 0.833 0 1.667 0 2.5-0.625 0-1.25 0-1.875 0 0-0.833 0-1.667 0-2.5z"></path>
<path fill="#37c0fe" d="M15.969 29.469c0.188 0 0.375 0 0.563 0 0 0.833 0 1.667 0 2.5-0.188 0-0.375 0-0.563 0 0-0.833 0-1.667 0-2.5z"></path>
</svg>
