<!-- Generated by IcoMoon.io -->
<svg version="1.1" xmlns="http://www.w3.org/2000/svg" width="32" height="32" viewBox="0 0 32 32">
<title>google</title>
<path d="M20.91 10.185c-1.322-1.26-3.085-1.947-4.91-1.919-3.339 0-6.175 2.253-7.186 5.286-0.536 1.59-0.536 3.311 0 4.901h0.005c1.016 3.029 3.847 5.282 7.186 5.282 1.724 0 3.204-0.441 4.35-1.22v-0.003c1.35-0.894 2.272-2.3 2.558-3.889h-6.914v-4.929h12.073c0.151 0.856 0.221 1.731 0.221 2.601 0 3.893-1.391 7.184-3.812 9.414l0.003 0.002c-2.121 1.956-5.032 3.090-8.484 3.090-4.84 0-9.265-2.728-11.438-7.050-1.815-3.617-1.815-7.878 0-11.494 2.173-4.327 6.598-7.055 11.438-7.055 3.179-0.038 6.25 1.157 8.564 3.33l-3.654 3.654z"></path>
</svg>
