<!-- Generated by IcoMoon.io -->
<svg version="1.1" xmlns="http://www.w3.org/2000/svg" width="32" height="32" viewBox="0 0 32 32">
<title>heart</title>
<path opacity="0.961" fill="#000" d="M31.969 10.156c-0.129-0.841-0.327-1.674-0.594-2.5-0.955-2.559-2.695-4.362-5.219-5.406-4.156-1.29-7.552-0.217-10.188 3.219-0.995-1.339-2.245-2.37-3.75-3.094-2.711-1.036-5.336-0.848-7.875 0.563-2.551 1.736-4.009 4.142-4.375 7.219 0 0.771 0 1.542 0 2.313 0.308 2.12 1.11 4.036 2.406 5.75 1.284 1.617 2.69 3.127 4.219 4.531 2.634 2.306 5.28 4.598 7.938 6.875 0.958 0.792 1.917 0.792 2.875 0 2.657-2.277 5.303-4.569 7.938-6.875 1.528-1.404 2.935-2.915 4.219-4.531 1.297-1.714 2.099-3.63 2.406-5.75 0-0.771 0-1.542 0-2.313zM8.031 3.656c2.132-0.203 3.954 0.443 5.469 1.938 0.621 0.704 1.194 1.443 1.719 2.219 0.5 0.292 1 0.292 1.5 0 0.525-0.775 1.098-1.515 1.719-2.219 2.142-2.012 4.59-2.481 7.344-1.406 2.495 1.29 3.902 3.342 4.219 6.156 0.174 1.662-0.096 3.245-0.813 4.75-0.659 1.276-1.471 2.442-2.438 3.5-0.861 0.861-1.726 1.726-2.594 2.594-2.706 2.373-5.435 4.717-8.188 7.031-3.357-2.779-6.639-5.654-9.844-8.625-1.193-1.22-2.234-2.553-3.125-4-1.294-2.496-1.439-5.058-0.438-7.688 1.071-2.395 2.894-3.812 5.469-4.25z"></path>
</svg>
