<!-- Generated by IcoMoon.io -->
<svg version="1.1" xmlns="http://www.w3.org/2000/svg" width="32" height="32" viewBox="0 0 32 32">
<title>home</title>
<path fill="none" stroke-linejoin="round" stroke-linecap="round" stroke-miterlimit="4" stroke-width="2" stroke="#000" d="M12.21 27.695v-4.089c-0-1.040 0.848-1.885 1.898-1.892h3.848c1.055 0 1.911 0.847 1.911 1.892v0 4.102c-0 0.883 0.712 1.605 1.603 1.625h2.565c2.557 0 4.631-2.052 4.631-4.584v0-11.632c-0.014-0.996-0.486-1.931-1.283-2.54l-8.774-6.997c-1.537-1.218-3.722-1.218-5.259 0l-8.735 7.010c-0.8 0.606-1.273 1.543-1.283 2.54v11.619c0 2.532 2.073 4.584 4.631 4.584h2.565c0.914 0 1.655-0.733 1.655-1.638v0"></path>
</svg>
