<?xml version="1.0" encoding="UTF-8"?>
<!DOCTYPE svg PUBLIC "-//W3C//DTD SVG 1.1//EN" "http://www.w3.org/Graphics/SVG/1.1/DTD/svg11.dtd">
<svg xmlns="http://www.w3.org/2000/svg" version="1.1" width="512px" height="512px" style="shape-rendering:geometricPrecision; text-rendering:geometricPrecision; image-rendering:optimizeQuality; fill-rule:evenodd; clip-rule:evenodd" xmlns:xlink="http://www.w3.org/1999/xlink">
<g><path style="opacity:0.996" fill="#3b46d7" d="M 391.5,85.5 C 300.833,85.5 210.167,85.5 119.5,85.5C 132.251,69.9804 148.584,59.8137 168.5,55C 172.469,54.1473 176.469,53.4807 180.5,53C 230.5,52.3333 280.5,52.3333 330.5,53C 350.978,55.5751 368.978,63.5751 384.5,77C 387.447,79.4356 389.78,82.2689 391.5,85.5 Z"/></g>
<g><path style="opacity:0.997" fill="#4147d8" d="M 119.5,85.5 C 210.167,85.5 300.833,85.5 391.5,85.5C 399.092,92.3431 404.426,100.676 407.5,110.5C 306.001,111.499 204.335,111.833 102.5,111.5C 106.178,101.462 111.845,92.7958 119.5,85.5 Z"/></g>
<g><path style="opacity:0.998" fill="#4746da" d="M 407.5,110.5 C 411.543,118.637 414.21,127.304 415.5,136.5C 308.833,136.5 202.167,136.5 95.5,136.5C 96.8247,127.862 99.158,119.529 102.5,111.5C 204.335,111.833 306.001,111.499 407.5,110.5 Z"/></g>
<g><path style="opacity:1" fill="#4e46db" d="M 95.5,136.5 C 202.167,136.5 308.833,136.5 415.5,136.5C 415.5,146.833 415.5,157.167 415.5,167.5C 308.833,167.5 202.167,167.5 95.5,167.5C 95.5,157.167 95.5,146.833 95.5,136.5 Z"/></g>
<g><path style="opacity:1" fill="#5446dd" d="M 95.5,167.5 C 202.167,167.5 308.833,167.5 415.5,167.5C 415.5,175.833 415.5,184.167 415.5,192.5C 308.833,192.5 202.167,192.5 95.5,192.5C 95.5,184.167 95.5,175.833 95.5,167.5 Z"/></g>
<g><path style="opacity:1" fill="#5a46de" d="M 95.5,192.5 C 202.167,192.5 308.833,192.5 415.5,192.5C 415.5,201.167 415.5,209.833 415.5,218.5C 308.833,218.5 202.167,218.5 95.5,218.5C 95.5,209.833 95.5,201.167 95.5,192.5 Z"/></g>
<g><path style="opacity:1" fill="#6046e0" d="M 95.5,218.5 C 202.167,218.5 308.833,218.5 415.5,218.5C 415.5,227.167 415.5,235.833 415.5,244.5C 308.833,244.5 202.167,244.5 95.5,244.5C 95.5,235.833 95.5,227.167 95.5,218.5 Z"/></g>
<g><path style="opacity:1" fill="#6646e1" d="M 95.5,244.5 C 202.167,244.5 308.833,244.5 415.5,244.5C 415.5,254.5 415.5,264.5 415.5,274.5C 308.833,274.5 202.167,274.5 95.5,274.5C 95.5,264.5 95.5,254.5 95.5,244.5 Z"/></g>
<g><path style="opacity:1" fill="#6d46e3" d="M 95.5,274.5 C 202.167,274.5 308.833,274.5 415.5,274.5C 415.5,283.167 415.5,291.833 415.5,300.5C 308.833,300.5 202.167,300.5 95.5,300.5C 95.5,291.833 95.5,283.167 95.5,274.5 Z"/></g>
<g><path style="opacity:1" fill="#7346e4" d="M 95.5,300.5 C 202.167,300.5 308.833,300.5 415.5,300.5C 415.5,309.167 415.5,317.833 415.5,326.5C 308.833,326.5 202.167,326.5 95.5,326.5C 95.5,317.833 95.5,309.167 95.5,300.5 Z"/></g>
<g><path style="opacity:1" fill="#7946e6" d="M 95.5,326.5 C 202.167,326.5 308.833,326.5 415.5,326.5C 415.5,335.167 415.5,343.833 415.5,352.5C 308.833,352.5 202.167,352.5 95.5,352.5C 95.5,343.833 95.5,335.167 95.5,326.5 Z"/></g>
<g><path style="opacity:1" fill="#7d45e7" d="M 95.5,352.5 C 202.167,352.5 308.833,352.5 415.5,352.5C 415.5,355.5 415.5,358.5 415.5,361.5C 308.833,361.5 202.167,361.5 95.5,361.5C 95.5,358.5 95.5,355.5 95.5,352.5 Z"/></g>
<g><path style="opacity:0.999" fill="#8045e8" d="M 95.5,361.5 C 202.167,361.5 308.833,361.5 415.5,361.5C 415.5,368.5 415.5,375.5 415.5,382.5C 365.331,382.168 315.331,382.501 265.5,383.5C 263.391,382.609 261.391,381.442 259.5,380C 255.019,378.888 251.019,379.721 247.5,382.5C 196.833,382.5 146.167,382.5 95.5,382.5C 95.5,375.5 95.5,368.5 95.5,361.5 Z"/></g>
<g><path style="opacity:0.996" fill="#8645e9" d="M 95.5,382.5 C 146.167,382.5 196.833,382.5 247.5,382.5C 235.113,391.55 222.446,400.217 209.5,408.5C 171.5,408.5 133.5,408.5 95.5,408.5C 95.5,399.833 95.5,391.167 95.5,382.5 Z"/></g>
<g><path style="opacity:0.998" fill="#8644e9" d="M 415.5,382.5 C 415.5,391.167 415.5,399.833 415.5,408.5C 377.5,408.5 339.5,408.5 301.5,408.5C 289.143,400.657 277.143,392.324 265.5,383.5C 315.331,382.501 365.331,382.168 415.5,382.5 Z"/></g>
<g><path style="opacity:0.994" fill="#8c44ea" d="M 95.5,408.5 C 133.5,408.5 171.5,408.5 209.5,408.5C 196.781,417.883 183.781,426.883 170.5,435.5C 146.006,434.502 121.339,434.169 96.5,434.5C 95.507,426.016 95.1736,417.349 95.5,408.5 Z"/></g>
<g><path style="opacity:0.996" fill="#8c45ea" d="M 301.5,408.5 C 339.5,408.5 377.5,408.5 415.5,408.5C 415.826,417.349 415.493,426.016 414.5,434.5C 389.661,434.169 364.994,434.502 340.5,435.5C 327.219,426.883 314.219,417.883 301.5,408.5 Z"/></g>
<g><path style="opacity:0.981" fill="#9145ec" d="M 96.5,434.5 C 121.339,434.169 146.006,434.502 170.5,435.5C 159.676,444.753 147.676,452.253 134.5,458C 115.226,460.542 102.56,452.709 96.5,434.5 Z"/></g>
<g><path style="opacity:0.984" fill="#9145ec" d="M 414.5,434.5 C 408.456,452.662 395.79,460.496 376.5,458C 363.324,452.253 351.324,444.753 340.5,435.5C 364.994,434.502 389.661,434.169 414.5,434.5 Z"/></g>
</svg>
