<!-- Generated by IcoMoon.io -->
<svg version="1.1" xmlns="http://www.w3.org/2000/svg" width="32" height="32" viewBox="0 0 32 32">
<title>shared</title>
<path fill="#13aad5" opacity="0.989" d="M26.531 0.969c1.435 1.467 2.883 2.925 4.344 4.375 0.030-0.059 0.041-0.122 0.031-0.188 0.083 0.542 0.083 1.083 0 1.625-0.75-0.813-1.521-1.563-2.313-2.25-0.292-0.5-0.688-0.896-1.188-1.188-0.674-0.769-1.403-1.529-2.188-2.281-0.037-0.029-0.079-0.039-0.125-0.031 0.467-0.132 0.946-0.153 1.438-0.063z"></path>
<path fill="#0eaed3" opacity="0.992" d="M26.531 0.969c2.439 0.376 3.897 1.772 4.375 4.188 0.009 0.066-0.001 0.128-0.031 0.188-1.46-1.45-2.908-2.908-4.344-4.375z"></path>
<path fill="#17a6d6" opacity="0.982" d="M25.094 1.031c0.046-0.008 0.088 0.002 0.125 0.031 0.784 0.752 1.513 1.512 2.188 2.281-0.722-0.309-1.472-0.392-2.25-0.25-0.442-0.536-0.921-1.047-1.438-1.531-0.037-0.029-0.079-0.039-0.125-0.031 0.457-0.278 0.957-0.444 1.5-0.5z"></path>
<path fill="#1f9fd9" opacity="0.985" d="M23.594 1.531c0.046-0.008 0.088 0.002 0.125 0.031 0.516 0.485 0.995 0.995 1.438 1.531-0.451 0.163-0.867 0.392-1.25 0.688-0.456-0.425-0.904-0.862-1.344-1.313-0.012-0.082-0.002-0.166 0.031-0.25 0.299-0.278 0.632-0.507 1-0.688z"></path>
<path fill="#2798db" opacity="0.982" d="M22.594 2.219c-0.033 0.084-0.043 0.168-0.031 0.25 0.44 0.45 0.888 0.888 1.344 1.313-0.493 0.527-0.784 1.152-0.875 1.875-0.563-0.542-1.125-1.083-1.688-1.625 0.269-0.706 0.686-1.311 1.25-1.813z"></path>
<path fill="#2e91dd" opacity="0.975" d="M21.344 4.031c0.563 0.542 1.125 1.083 1.688 1.625-0.060 0.845 0.169 1.595 0.688 2.25-0.917-0.854-1.833-1.708-2.75-2.563 0.058-0.464 0.183-0.901 0.375-1.313z"></path>
<path fill="#16a6d6" opacity="0.982" d="M30.906 6.781c-0.033 0.319-0.095 0.631-0.188 0.938-0.629-0.628-1.233-1.274-1.813-1.938-0.046-0.432-0.15-0.849-0.313-1.25 0.792 0.687 1.563 1.437 2.313 2.25z"></path>
<path fill="#348cdf" opacity="0.993" d="M20.969 5.344c0.917 0.854 1.833 1.708 2.75 2.563 0.106 0.148 0.231 0.273 0.375 0.375-0.008 0.046 0.002 0.088 0.031 0.125 0.836 0.825 1.658 1.658 2.469 2.5-1.004 0.166-1.962 0.020-2.875-0.438 0.066 0.009 0.128-0.001 0.188-0.031-1.013-1.023-2.033-2.033-3.063-3.031 0.093-0.058 0.176-0.13 0.25-0.219-0.136-0.617-0.178-1.231-0.125-1.844z"></path>
<path fill="#1ca1d8" opacity="0.98" d="M28.906 5.781c0.58 0.663 1.184 1.309 1.813 1.938-0.171 0.489-0.421 0.926-0.75 1.313-0.479-0.5-0.958-1-1.438-1.5 0.261-0.553 0.386-1.136 0.375-1.75z"></path>
<path fill="#3b86e1" opacity="0.979" d="M20.844 7.406c1.029 0.998 2.050 2.008 3.063 3.031-0.059 0.030-0.122 0.041-0.188 0.031-0.67-0.325-1.243-0.783-1.719-1.375-0.291 0.172-0.593 0.317-0.906 0.438-0.479-0.521-0.979-1.021-1.5-1.5 0.397-0.24 0.814-0.448 1.25-0.625z"></path>
<path fill="#4180e3" opacity="0.981" d="M19.594 8.031c0.521 0.479 1.021 0.979 1.5 1.5-0.355 0.219-0.73 0.407-1.125 0.563-0.504-0.503-0.983-1.024-1.438-1.563 0.346-0.184 0.701-0.35 1.063-0.5z"></path>
<path fill="#239bda" opacity="0.984" d="M28.531 7.531c0.479 0.5 0.958 1 1.438 1.5-0.23 0.315-0.501 0.586-0.813 0.813-0.066 0.009-0.128-0.001-0.188-0.031-0.475-0.443-0.912-0.912-1.313-1.406 0.356-0.231 0.648-0.523 0.875-0.875z"></path>
<path fill="#2e91dd" opacity="0.974" d="M24.094 8.281c0.664 0.499 1.414 0.707 2.25 0.625 0.5 0.563 1 1.125 1.5 1.688-0.387 0.198-0.803 0.303-1.25 0.313-0.81-0.842-1.633-1.675-2.469-2.5-0.029-0.037-0.039-0.079-0.031-0.125z"></path>
<path fill="#2897db" opacity="0.981" d="M27.656 8.406c0.4 0.494 0.838 0.963 1.313 1.406 0.059 0.030 0.122 0.041 0.188 0.031-0.388 0.33-0.826 0.58-1.313 0.75-0.5-0.563-1-1.125-1.5-1.688 0.477-0.069 0.915-0.235 1.313-0.5z"></path>
<path fill="#477be5" opacity="0.979" d="M18.531 8.531c0.455 0.538 0.934 1.059 1.438 1.563-0.355 0.219-0.73 0.407-1.125 0.563-0.521-0.479-1.021-0.979-1.5-1.5 0.384-0.223 0.78-0.432 1.188-0.625z"></path>
<path fill="#4d76e6" opacity="0.981" d="M17.344 9.156c0.479 0.521 0.979 1.021 1.5 1.5-0.355 0.219-0.73 0.407-1.125 0.563-0.504-0.503-0.983-1.024-1.438-1.563 0.346-0.184 0.701-0.35 1.063-0.5z"></path>
<path fill="#5272e8" opacity="0.989" d="M16.281 9.656c0.455 0.538 0.934 1.059 1.438 1.563-0.272 0.178-0.564 0.323-0.875 0.438-0.521-0.479-1.021-0.979-1.5-1.5 0.3-0.182 0.613-0.348 0.938-0.5z"></path>
<path fill="#596cea" opacity="0.979" d="M15.344 10.156c0.479 0.521 0.979 1.021 1.5 1.5-0.605 0.344-1.23 0.657-1.875 0.938-0.421-0.515-0.88-1.005-1.375-1.469-0.037-0.029-0.079-0.039-0.125-0.031 0.605-0.344 1.23-0.657 1.875-0.938z"></path>
<path fill="#7354f2" opacity="0.988" d="M6.031 10.969c0.828-0.017 1.599 0.171 2.313 0.563-0.046-0.008-0.088 0.002-0.125 0.031 0.974 1.005 1.974 1.974 3 2.906-0.134 0.078-0.259 0.172-0.375 0.281 0.090 0.338 0.131 0.682 0.125 1.031-0.039 0.007-0.070 0.028-0.094 0.063-1.627-1.617-3.242-3.242-4.844-4.875z"></path>
<path fill="#7950f3" opacity="0.988" d="M6.031 10.969c1.602 1.633 3.217 3.258 4.844 4.875 0.024-0.035 0.055-0.056 0.094-0.063 0.020 0.475-0.021 0.944-0.125 1.406 0.021 0.031 0.042 0.063 0.063 0.094 0.993 0.486 1.972 0.986 2.938 1.5 1.425 1.456 2.862 2.904 4.313 4.344-0.014 0.025-0.035 0.035-0.063 0.031-1.228-0.572-2.437-1.177-3.625-1.813-1.791-1.896-3.646-3.771-5.563-5.625-0.217-1.613-1.134-2.509-2.75-2.688-0.538-0.622-1.101-1.226-1.688-1.813 0.495-0.195 1.016-0.278 1.563-0.25z"></path>
<path fill="#6065ec" opacity="0.979" d="M13.469 11.094c0.046-0.008 0.088 0.002 0.125 0.031 0.495 0.464 0.954 0.953 1.375 1.469-0.425 0.244-0.863 0.473-1.313 0.688-0.421-0.515-0.88-1.005-1.375-1.469-0.059-0.030-0.122-0.041-0.188-0.031 0.438-0.261 0.897-0.49 1.375-0.688z"></path>
<path fill="#8049f6" opacity="0.981" d="M4.469 11.219c0.587 0.587 1.149 1.191 1.688 1.813-0.602-0.042-1.164 0.083-1.688 0.375-0.458-0.521-0.917-1.042-1.375-1.563 0.418-0.292 0.876-0.501 1.375-0.625z"></path>
<path fill="#6d5af0" opacity="0.973" d="M8.344 11.531c0.612 0.33 1.143 0.767 1.594 1.313 0.333-0.192 0.676-0.359 1.031-0.5 0.542 0.479 1.083 0.958 1.625 1.438-0.438 0.261-0.897 0.49-1.375 0.688-1.026-0.932-2.026-1.901-3-2.906 0.037-0.029 0.079-0.039 0.125-0.031z"></path>
<path fill="#6760ee" opacity="0.985" d="M12.094 11.781c0.066-0.009 0.128 0.001 0.188 0.031 0.495 0.464 0.954 0.953 1.375 1.469-0.346 0.184-0.7 0.35-1.063 0.5-0.542-0.479-1.083-0.958-1.625-1.438 0.355-0.219 0.73-0.407 1.125-0.563z"></path>
<path fill="#8744f7" opacity="0.985" d="M3.094 11.844c0.458 0.521 0.917 1.042 1.375 1.563-0.343 0.192-0.635 0.442-0.875 0.75-0.517-0.434-1.017-0.892-1.5-1.375 0.291-0.353 0.624-0.666 1-0.938z"></path>
<path fill="#8d3ef9" opacity="0.987" d="M2.094 12.781c0.483 0.483 0.983 0.941 1.5 1.375-0.262 0.433-0.45 0.891-0.563 1.375-0.524-0.587-1.087-1.128-1.688-1.625 0.189-0.42 0.439-0.795 0.75-1.125z"></path>
<path fill="#923afb" opacity="0.982" d="M1.344 13.906c0.601 0.497 1.163 1.038 1.688 1.625-0.056 0.785 0.111 1.514 0.5 2.188-0.821-0.789-1.633-1.592-2.438-2.406-0.037-0.029-0.079-0.039-0.125-0.031 0.086-0.47 0.211-0.928 0.375-1.375z"></path>
<path fill="#9934fd" opacity="0.987" d="M0.969 15.281c0.046-0.008 0.088 0.002 0.125 0.031 0.804 0.815 1.617 1.617 2.438 2.406 0.209 0.272 0.459 0.501 0.75 0.688 0.768 0.872 1.58 1.705 2.438 2.5-2.208 0.224-3.927-0.588-5.156-2.438-0.515-1.001-0.713-2.064-0.594-3.188z"></path>
<path fill="#7e4bf5" opacity="0.993" d="M8.906 15.719c1.917 1.854 3.771 3.729 5.563 5.625-1.353-0.635-2.687-1.302-4-2-0.607-0.67-1.253-1.295-1.938-1.875 0.276-0.548 0.401-1.131 0.375-1.75z"></path>
<path fill="#8744f7" opacity="0.98" d="M8.531 17.469c0.684 0.58 1.33 1.205 1.938 1.875-0.188-0.058-0.365-0.141-0.531-0.25-0.252 0.263-0.513 0.513-0.781 0.75-0.458-0.5-0.938-0.979-1.438-1.438 0.337-0.254 0.608-0.566 0.813-0.938z"></path>
<path fill="#8d3ef9" opacity="0.996" d="M7.719 18.406c0.5 0.458 0.979 0.938 1.438 1.438-0.303 0.303-0.658 0.532-1.063 0.688-0.563-0.521-1.104-1.063-1.625-1.625 0.443-0.106 0.859-0.272 1.25-0.5z"></path>
<path fill="#7354f2" opacity="0.978" d="M13.844 18.781c1.103 0.51 2.186 1.052 3.25 1.625 1.958 2 3.938 3.979 5.938 5.938 0.249 1.457 1.103 2.311 2.563 2.563 0.606 0.648 1.231 1.273 1.875 1.875-0.491 0.13-0.991 0.193-1.5 0.188-1.646-1.688-3.313-3.354-5-5-0.015-0.412 0.027-0.819 0.125-1.219-0.021-0.031-0.042-0.063-0.063-0.094-0.993-0.486-1.972-0.986-2.938-1.5 0.027 0.004 0.048-0.006 0.063-0.031-1.45-1.44-2.888-2.888-4.313-4.344z"></path>
<path fill="#9239fb" opacity="0.98" d="M4.281 18.406c0.664 0.431 1.393 0.598 2.188 0.5 0.521 0.563 1.063 1.104 1.625 1.625-0.426 0.221-0.884 0.346-1.375 0.375-0.857-0.795-1.67-1.628-2.438-2.5z"></path>
<path fill="#6e59f0" opacity="0.986" d="M17.094 20.406c1.311 0.614 2.603 1.26 3.875 1.938 0.797 0.797 1.568 1.609 2.313 2.438-0.21 0.497-0.293 1.018-0.25 1.563-2-1.958-3.979-3.938-5.938-5.938z"></path>
<path fill="#556fe9" opacity="0.993" d="M25.219 20.969c0.313 0 0.625 0 0.938 0 1.583 1.625 3.188 3.229 4.813 4.813 0.020 0.283-0.001 0.554-0.063 0.813-0.852-0.821-1.696-1.654-2.531-2.5-0.025 0.014-0.035 0.035-0.031 0.063-0.167-0.208-0.354-0.396-0.563-0.563-0.811-0.915-1.665-1.79-2.563-2.625z"></path>
<path fill="#5272e8" opacity="0.991" d="M26.156 20.969c2.917 0.292 4.521 1.896 4.813 4.813-1.625-1.583-3.229-3.188-4.813-4.813z"></path>
<path fill="#596bea" opacity="0.976" d="M25.219 20.969c0.897 0.835 1.752 1.71 2.563 2.625-0.698-0.471-1.468-0.659-2.313-0.563-0.521-0.542-1.042-1.083-1.563-1.625 0.412-0.207 0.85-0.353 1.313-0.438z"></path>
<path fill="#6065ec" opacity="0.984" d="M23.906 21.406c0.521 0.542 1.042 1.083 1.563 1.625-0.394 0.097-0.769 0.242-1.125 0.438-0.118-0.013-0.212 0.029-0.281 0.125-0.46-0.471-0.929-0.929-1.406-1.375 0.352-0.364 0.769-0.635 1.25-0.813z"></path>
<path fill="#675fee" opacity="0.983" d="M22.656 22.219c0.477 0.446 0.946 0.904 1.406 1.375 0.069-0.096 0.163-0.138 0.281-0.125-0.487 0.326-0.841 0.764-1.063 1.313-0.745-0.828-1.515-1.641-2.313-2.438 0.355 0.141 0.699 0.308 1.031 0.5 0.211-0.221 0.429-0.429 0.656-0.625z"></path>
<path fill="#596bea" opacity="0.977" d="M30.906 26.594c-0.019 0.513-0.144 0.993-0.375 1.438-0.563-0.521-1.104-1.063-1.625-1.625 0.066-0.818-0.122-1.568-0.563-2.25-0.004-0.027 0.006-0.048 0.031-0.063 0.835 0.846 1.679 1.679 2.531 2.5z"></path>
<path fill="#6065ec" opacity="0.984" d="M28.906 26.406c0.521 0.563 1.063 1.104 1.625 1.625-0.193 0.49-0.464 0.928-0.813 1.313-0.458-0.521-0.917-1.042-1.375-1.563 0.262-0.433 0.45-0.891 0.563-1.375z"></path>
<path fill="#794ff3" opacity="0.988" d="M20.969 25.969c1.688 1.646 3.354 3.313 5 5-2.562-0.114-4.197-1.405-4.906-3.875-0.073-0.372-0.104-0.747-0.094-1.125z"></path>
<path fill="#675fee" opacity="0.982" d="M28.344 27.781c0.458 0.521 0.917 1.042 1.375 1.563-0.264 0.361-0.597 0.631-1 0.813-0.446-0.477-0.904-0.946-1.375-1.406-0.059-0.030-0.122-0.041-0.188-0.031 0.451-0.243 0.847-0.555 1.188-0.938z"></path>
<path fill="#6d5af0" opacity="0.982" d="M27.156 28.719c0.066-0.009 0.128 0.001 0.188 0.031 0.471 0.46 0.929 0.929 1.375 1.406-0.38 0.273-0.796 0.482-1.25 0.625-0.644-0.602-1.269-1.227-1.875-1.875 0.534 0.034 1.055-0.029 1.563-0.188z"></path>
</svg>
