<!-- Generated by IcoMoon.io -->
<svg version="1.1" xmlns="http://www.w3.org/2000/svg" width="32" height="32" viewBox="0 0 32 32">
<title>share</title>
<path d="M19.594 6.969c-0.269 0.134-0.467 0.343-0.594 0.625-0.031 1.562-0.042 3.125-0.031 4.688-3.26-0.102-6.302 0.659-9.125 2.281-3.552 2.209-5.844 5.345-6.875 9.406-0.020 0.346 0.105 0.627 0.375 0.844 0.424 0.263 0.84 0.263 1.25 0 3.876-4.233 8.668-5.973 14.375-5.219-0.010 1.584 0 3.167 0.031 4.75 0.066 0.191 0.181 0.348 0.344 0.469 0.417 0.208 0.833 0.208 1.25 0 2.74-2.74 5.479-5.479 8.219-8.219 0.208-0.417 0.208-0.833 0-1.25-2.74-2.74-5.479-5.479-8.219-8.219-0.316-0.141-0.65-0.193-1-0.156zM7.031 20.031c1.722-2.468 4.035-4.145 6.938-5.031 2.087-0.591 4.212-0.82 6.375-0.688 0.281-0.115 0.479-0.313 0.594-0.594 0.021-1.083 0.042-2.167 0.063-3.25 1.834 1.824 3.657 3.657 5.469 5.5-1.812 1.843-3.635 3.676-5.469 5.5-0.021-1.042-0.042-2.083-0.063-3.125-0.132-0.29-0.35-0.488-0.656-0.594-4.731-1.014-9.148-0.253-13.25 2.281z"></path>
</svg>
