<!-- Generated by IcoMoon.io -->
<svg version="1.1" xmlns="http://www.w3.org/2000/svg" width="32" height="32" viewBox="0 0 32 32">
<title>theme</title>
<path fill="#1581ff" opacity="0.983" d="M6.219 0.969c-1.063 1.104-2.146 2.188-3.25 3.25-0.059-1.476 0.587-2.507 1.938-3.094 0.427-0.135 0.864-0.187 1.313-0.156z"></path>
<path fill="#1c7dff" opacity="0.996" d="M6.219 0.969c0.542 0 1.083 0 1.625 0-1.542 1.583-3.104 3.146-4.688 4.688-0.102-0.466-0.165-0.945-0.188-1.438 1.104-1.063 2.188-2.146 3.25-3.25z"></path>
<path fill="#2279ff" opacity="0.997" d="M7.844 0.969c0.458 0 0.917 0 1.375 0-1.941 2.003-3.92 3.961-5.938 5.875-0.067-0.393-0.109-0.788-0.125-1.188 1.583-1.542 3.146-3.104 4.688-4.688z"></path>
<path fill="#2976ff" opacity="0.998" d="M9.219 0.969c0.479 0 0.958 0 1.438 0-2.375 2.417-4.771 4.813-7.188 7.188-0.088-0.431-0.15-0.869-0.188-1.313 2.018-1.914 3.997-3.872 5.938-5.875z"></path>
<path fill="#2e73ff" opacity="0.997" d="M10.656 0.969c0.458 0 0.917 0 1.375 0-2.774 2.836-5.586 5.628-8.438 8.375-0.057-0.394-0.099-0.79-0.125-1.188 2.417-2.375 4.813-4.771 7.188-7.188z"></path>
<path fill="#356fff" opacity="0.997" d="M12.031 0.969c0.542 0 1.083 0 1.625 0-3.293 3.314-6.585 6.627-9.875 9.938-0.057-0.522-0.119-1.042-0.188-1.563 2.851-2.747 5.664-5.539 8.438-8.375z"></path>
<path fill="#3b6cff" opacity="0.998" d="M13.656 0.969c0.5 0 1 0 1.5 0-3.708 3.75-7.438 7.479-11.188 11.188-0.063-0.417-0.125-0.833-0.188-1.25 3.29-3.311 6.582-6.623 9.875-9.938z"></path>
<path fill="#4168ff" opacity="0.999" d="M15.156 0.969c0.438 0 0.875 0 1.313 0-4.127 4.148-8.252 8.293-12.375 12.438-0.036-0.417-0.077-0.834-0.125-1.25 3.75-3.708 7.479-7.438 11.188-11.188z"></path>
<path fill="#4865ff" opacity="0.999" d="M16.469 0.969c0.542 0 1.083 0 1.625 0-4.583 4.625-9.188 9.229-13.813 13.813-0.042-0.464-0.105-0.922-0.188-1.375 4.123-4.144 8.248-8.29 12.375-12.438z"></path>
<path fill="#4e61ff" opacity="0.998" d="M18.094 0.969c0.458 0 0.917 0 1.375 0-4.979 5.021-9.979 10.021-15 15-0.068-0.393-0.131-0.789-0.188-1.188 4.625-4.583 9.229-9.188 13.813-13.813z"></path>
<path fill="#545eff" opacity="0.999" d="M19.469 0.969c0.396 0 0.792 0 1.188 0-5.313 5.333-10.625 10.667-15.938 16-0.062 0.005-0.114-0.015-0.156-0.063-0.047-0.311-0.078-0.624-0.094-0.938 5.021-4.979 10.021-9.979 15-15z"></path>
<path fill="#5a5bff" d="M20.656 0.969c0.542 0 1.083 0 1.625 0-5.313 5.333-10.625 10.667-15.938 16-0.542 0-1.083 0-1.625 0 5.313-5.333 10.625-10.667 15.938-16z"></path>
<path fill="#5f58ff" d="M22.281 0.969c0.313 0 0.625 0 0.938 0-5.313 5.333-10.625 10.667-15.938 16-0.313 0-0.625 0-0.938 0 5.313-5.333 10.625-10.667 15.938-16z"></path>
<path fill="#6257ff" d="M23.219 0.969c0.146 0 0.292 0 0.438 0-5.313 5.333-10.625 10.667-15.938 16-0.146 0-0.292 0-0.438 0 5.313-5.333 10.625-10.667 15.938-16z"></path>
<path fill="#6654ff" d="M23.656 0.969c0.542 0 1.083 0 1.625 0-5.313 5.333-10.625 10.667-15.938 16-0.542 0-1.083 0-1.625 0 5.313-5.333 10.625-10.667 15.938-16z"></path>
<path fill="#6b52ff" d="M25.281 0.969c0.167 0 0.333 0 0.5 0-5.313 5.333-10.625 10.667-15.938 16-0.167 0-0.333 0-0.5 0 5.313-5.333 10.625-10.667 15.938-16z"></path>
<path fill="#6e50ff" opacity="0.999" d="M25.781 0.969c0.296-0.014 0.587 0.007 0.875 0.063-5.292 5.313-10.583 10.625-15.875 15.938-0.313 0-0.625 0-0.938 0 5.313-5.333 10.625-10.667 15.938-16z"></path>
<path fill="#734dfe" opacity="0.999" d="M26.656 1.031c0.333 0.076 0.645 0.201 0.938 0.375 0.008 0.046-0.002 0.088-0.031 0.125-5.148 5.138-10.283 10.283-15.406 15.438-0.458 0-0.917 0-1.375 0 5.292-5.313 10.583-10.625 15.875-15.938z"></path>
<path fill="#774bff" opacity="0.999" d="M27.594 1.406c0.16 0.111 0.306 0.236 0.438 0.375-5.083 5.042-10.146 10.104-15.188 15.188-0.229 0-0.458 0-0.688 0 5.123-5.154 10.258-10.3 15.406-15.438 0.029-0.037 0.039-0.079 0.031-0.125z"></path>
<path fill="#7a49ff" opacity="0.999" d="M28.031 1.781c0.151 0.088 0.255 0.213 0.313 0.375-4.958 4.917-9.896 9.854-14.813 14.813-0.229 0-0.458 0-0.688 0 5.042-5.083 10.104-10.146 15.188-15.188z"></path>
<path fill="#7f46fe" opacity="0.999" d="M28.344 2.156c0.247 0.265 0.414 0.578 0.5 0.938 0.009 0.066-0.001 0.128-0.031 0.188-4.565 4.554-9.117 9.117-13.656 13.688-0.542 0-1.083 0-1.625 0 4.917-4.958 9.854-9.896 14.813-14.813z"></path>
<path fill="#8643ff" opacity="0.999" d="M28.844 3.094c0.097 0.296 0.138 0.608 0.125 0.938-0 0.241-0.021 0.47-0.063 0.688-4.125 4.021-8.229 8.104-12.313 12.25-0.479 0-0.958 0-1.438 0 4.54-4.571 9.092-9.133 13.656-13.688 0.030-0.059 0.041-0.122 0.031-0.188z"></path>
<path fill="#8c40ff" opacity="0.998" d="M28.906 4.719c-0.023 0.493-0.085 0.972-0.188 1.438-3.625 3.583-7.229 7.188-10.813 10.813-0.438 0-0.875 0-1.313 0 4.083-4.146 8.188-8.229 12.313-12.25z"></path>
<path fill="#923cff" opacity="0.998" d="M28.719 6.156c-0.032 0.546-0.094 1.088-0.188 1.625-3.083 3.042-6.146 6.104-9.188 9.188-0.479 0-0.958 0-1.438 0 3.583-3.625 7.188-7.229 10.813-10.813z"></path>
<path fill="#9839ff" opacity="0.997" d="M28.531 7.781c-0.073 0.668-0.156 1.335-0.25 2-2.455 2.351-4.872 4.747-7.25 7.188-0.563 0-1.125 0-1.688 0 3.042-3.083 6.104-6.146 9.188-9.188z"></path>
<path fill="#9f35ff" opacity="0.996" d="M28.281 9.781c-0.052 0.501-0.115 1.001-0.188 1.5-1.917 1.875-3.813 3.771-5.688 5.688-0.458 0-0.917 0-1.375 0 2.378-2.441 4.795-4.836 7.25-7.188z"></path>
<path fill="#a532fe" opacity="0.995" d="M28.094 11.281c-0.073 0.54-0.135 1.082-0.188 1.625-1.413 1.309-2.788 2.663-4.125 4.063-0.458 0-0.917 0-1.375 0 1.875-1.917 3.771-3.813 5.688-5.688z"></path>
<path fill="#ad2eff" opacity="0.993" d="M27.906 12.906c-0.18 1.346-0.367 2.69-0.563 4.031-1.187 0.031-2.375 0.042-3.563 0.031 1.337-1.399 2.712-2.753 4.125-4.063z"></path>
<path fill="#6654ff" opacity="0.982" d="M7.281 18.969c-0.856 0.877-1.71 1.752-2.563 2.625 0-0.875 0-1.75 0-2.625 0.854 0 1.708 0 2.563 0z"></path>
<path fill="#6d50ff" opacity="0.993" d="M7.281 18.969c0.479 0 0.958 0 1.438 0-1.248 1.279-2.508 2.55-3.781 3.813-0.029 0.037-0.039 0.079-0.031 0.125-0.087-0.149-0.139-0.315-0.156-0.5-0.031-0.27-0.042-0.541-0.031-0.813 0.852-0.873 1.707-1.748 2.563-2.625z"></path>
<path fill="#764cff" opacity="0.998" d="M8.719 18.969c0.688 0 1.375 0 2.063 0-1.708 1.729-3.417 3.458-5.125 5.188-0.376-0.336-0.626-0.753-0.75-1.25-0.008-0.046 0.002-0.088 0.031-0.125 1.273-1.263 2.533-2.533 3.781-3.813z"></path>
<path fill="#7a49ff" opacity="0.997" d="M10.781 18.969c0.229 0 0.458 0 0.688 0-1.795 1.857-3.628 3.67-5.5 5.438-0.106-0.085-0.21-0.169-0.313-0.25 1.708-1.729 3.417-3.458 5.125-5.188z"></path>
<path fill="#7f46ff" opacity="0.997" d="M11.469 18.969c0.542 0 1.083 0 1.625 0-1.958 2-3.938 3.979-5.938 5.938-0.451-0.049-0.847-0.215-1.188-0.5 1.872-1.768 3.705-3.58 5.5-5.438z"></path>
<path fill="#8643fe" d="M13.094 18.969c0.479 0 0.958 0 1.438 0-1.979 2-3.958 4-5.938 6-0.491 0.020-0.97-0-1.438-0.063 2-1.958 3.979-3.938 5.938-5.938z"></path>
<path fill="#8c40fe" d="M14.531 18.969c0.438 0 0.875 0 1.313 0-1.979 2-3.958 4-5.938 6-0.438 0-0.875 0-1.313 0 1.979-2 3.958-4 5.938-6z"></path>
<path fill="#923cfe" d="M15.844 18.969c0.479 0 0.958 0 1.438 0-1.979 2-3.958 4-5.938 6-0.479 0-0.958 0-1.438 0 1.979-2 3.958-4 5.938-6z"></path>
<path fill="#9839fe" d="M17.281 18.969c0.563 0 1.125 0 1.688 0-2.313 2.354-4.646 4.688-7 7 0-0.333 0-0.667 0-1-0.208 0-0.417 0-0.625 0 1.979-2 3.958-4 5.938-6z"></path>
<path fill="#9f35fe" d="M18.969 18.969c0.458 0 0.917 0 1.375 0-2.771 2.813-5.563 5.604-8.375 8.375 0-0.458 0-0.917 0-1.375 2.354-2.313 4.688-4.646 7-7z"></path>
<path fill="#a532ff" opacity="0.998" d="M20.344 18.969c0.458 0 0.917 0 1.375 0-3.123 3.154-6.258 6.3-9.406 9.438-0.042-0.047-0.094-0.068-0.156-0.063-0.102-0.326-0.165-0.659-0.188-1 2.813-2.771 5.604-5.563 8.375-8.375z"></path>
<path fill="#ab2fff" opacity="0.998" d="M21.719 18.969c0.479 0 0.958 0 1.438 0-3.458 3.479-6.917 6.958-10.375 10.438-0.255-0.321-0.463-0.675-0.625-1.063 0.062-0.005 0.114 0.015 0.156 0.063 3.148-3.138 6.283-6.283 9.406-9.438z"></path>
<path fill="#b22bff" opacity="0.999" d="M23.156 18.969c0.542 0 1.083 0 1.625 0-3.729 3.75-7.458 7.5-11.188 11.25-0.333-0.208-0.604-0.479-0.813-0.813 3.458-3.479 6.917-6.958 10.375-10.438z"></path>
<path fill="#b827ff" opacity="0.999" d="M24.781 18.969c0.458 0 0.917 0 1.375 0-1.979 2-3.958 4-5.938 6-0.083 0-0.167 0-0.25 0 0 0.083 0 0.167 0 0.25-1.854 1.813-3.688 3.646-5.5 5.5-0.314-0.136-0.606-0.303-0.875-0.5 3.729-3.75 7.458-7.5 11.188-11.25z"></path>
<path fill="#be24ff" opacity="0.999" d="M26.156 18.969c0.354 0 0.708 0 1.063 0 0 0.104 0 0.208 0 0.313-1.873 1.894-3.748 3.79-5.625 5.688-0.458 0-0.917 0-1.375 0 1.979-2 3.958-4 5.938-6z"></path>
<path fill="#c421ff" opacity="0.996" d="M27.219 19.281c0 0.521 0 1.042 0 1.563-1.434 1.33-2.83 2.705-4.188 4.125-0.479 0-0.958 0-1.438 0 1.877-1.898 3.752-3.793 5.625-5.688z"></path>
<path fill="#cb1dff" opacity="0.991" d="M27.219 20.844c0.215 3.014-1.18 4.389-4.188 4.125 1.357-1.42 2.753-2.795 4.188-4.125z"></path>
<path fill="#be24ff" opacity="0.996" d="M19.969 25.219c0 0.458 0 0.917 0 1.375-1.479 1.438-2.938 2.896-4.375 4.375-0.389-0.028-0.764-0.111-1.125-0.25 1.813-1.854 3.646-3.688 5.5-5.5z"></path>
<path fill="#c521ff" opacity="0.993" d="M19.969 26.594c0.092 1.973-0.762 3.358-2.563 4.156-0.589 0.189-1.194 0.261-1.813 0.219 1.438-1.479 2.896-2.938 4.375-4.375z"></path>
</svg>
