<svg width="24" height="24" viewBox="0 0 24 24" fill="none" xmlns="http://www.w3.org/2000/svg">
<g clip-path="url(#clip0_119_229)">
<g clip-path="url(#clip1_119_229)">
<path d="M12 22.9091C18.0249 22.9091 22.9091 18.025 22.9091 12C22.9091 5.97511 18.0249 1.09094 12 1.09094C5.97509 1.09094 1.09093 5.97511 1.09093 12C1.09093 18.025 5.97509 22.9091 12 22.9091Z" stroke="#8F90A7" stroke-width="2" stroke-linecap="round" stroke-linejoin="round"/>
<path d="M1.09093 12H22.9091" stroke="#8F90A7" stroke-width="2" stroke-linecap="round" stroke-linejoin="round"/>
<path d="M12 1.09094C14.7287 4.07824 16.2794 7.95498 16.3637 12C16.2794 16.0451 14.7287 19.9218 12 22.9091C9.27136 19.9218 7.72066 16.0451 7.63639 12C7.72066 7.95498 9.27136 4.07824 12 1.09094V1.09094Z" stroke="#8F90A7" stroke-width="2" stroke-linecap="round" stroke-linejoin="round"/>
</g>
</g>
<defs>
<clipPath id="clip0_119_229">
<rect width="24" height="24" fill="white"/>
</clipPath>
<clipPath id="clip1_119_229">
<rect width="24" height="24" fill="white"/>
</clipPath>
</defs>
</svg>
